G04 DipTrace 2.2.0.9*
%INBottomPasteAF.gbr*%
%MOIN*%
%ADD61C,0.022*%
%ADD63R,0.0038X0.0097*%
%ADD65R,0.0097X0.0038*%
%ADD82C,0.032*%
%ADD115R,0.0314X0.0353*%
%ADD117R,0.0353X0.0314*%
%FSLAX44Y44*%
%SFA1B1*%
%OFA0B0*%
G04*
G70*
G90*
G75*
G01*
%LNBotPaste*%
%LPD*%
D61*
X17460Y11652D3*
X15383Y11680D3*
X16973Y17092D3*
X21999Y19578D3*
X19408Y11682D3*
X21387Y11696D3*
X9813Y11951D3*
X22447Y18163D3*
X22860Y18159D3*
X9841Y11498D3*
X22937Y21454D3*
X24938Y23893D3*
X20578Y13122D3*
Y15435D3*
X22581Y16591D3*
X15483Y17445D3*
X18540Y17390D3*
X18403Y23418D3*
X17328Y19208D3*
X18468Y18474D3*
X18775Y21540D3*
X18010Y22244D3*
X19199Y20565D3*
X19219Y20141D3*
X21193Y20704D3*
X7683Y21920D3*
X10129Y18024D3*
X14795Y19290D3*
X8288Y17708D3*
X11903Y16344D3*
X14740Y21163D3*
X21377Y18685D3*
X13793Y23408D3*
X13755Y18649D3*
X11555Y19966D3*
X18008Y24592D3*
X9784Y12574D3*
Y13029D3*
X13094Y22845D3*
Y17838D3*
X18940Y8302D3*
X19752Y17170D3*
X23442Y21411D3*
X22258Y21494D3*
X24323Y23284D3*
X4771Y18024D3*
X19880Y21087D3*
X9728Y16867D3*
X24472Y11305D3*
X7925Y9683D3*
X9501Y27357D3*
X10257Y26585D3*
X10300Y27263D3*
X21385Y12645D3*
X10296Y22748D3*
X20754Y7631D3*
X24456Y7704D3*
X27059Y20936D3*
X9492Y21398D3*
X6549Y21340D3*
X24925Y19311D3*
X20892Y26033D3*
X26084Y13038D3*
X24915Y19676D3*
X24992Y22118D3*
X23591Y17990D3*
X27520Y26943D3*
X13109Y11904D3*
X20871Y24653D3*
X26187Y22557D3*
X26234Y20945D3*
X27022Y22622D3*
X23504Y32823D3*
X23496Y31260D3*
X10364Y30850D3*
X13262Y29937D3*
D117*
X19489Y19493D3*
X20159D3*
X15875Y21155D3*
X15206D3*
X15941Y17980D3*
X15272D3*
X16102Y19272D3*
X15433D3*
X19239Y21579D3*
X19908D3*
D115*
X18396Y22267D3*
Y22937D3*
D82*
X18966Y18911D3*
X18000Y17930D3*
X17451Y17495D3*
X17069Y17913D3*
X16638Y22003D3*
X16620Y22590D3*
D65*
X17984Y19676D3*
X17988Y19480D3*
Y19283D3*
Y19086D3*
D63*
X17735Y18833D3*
X17538D3*
X17341D3*
X17144D3*
D65*
X16891Y19086D3*
Y19283D3*
Y19480D3*
Y19676D3*
D63*
X17144Y19930D3*
X17341D3*
X17538D3*
X17735D3*
M02*
