G04 DipTrace 2.2.0.9*
%INBottomMaskAF.gbr*%
%MOIN*%
%ADD57C,0.125*%
%ADD60C,0.038*%
%ADD62R,0.0198X0.0257*%
%ADD64R,0.0257X0.0198*%
%ADD81C,0.048*%
%ADD87C,0.108*%
%ADD91C,0.083*%
%ADD92R,0.083X0.083*%
%ADD94R,0.208X0.108*%
%ADD98R,0.108X0.208*%
%ADD102C,0.073*%
%ADD104R,0.073X0.073*%
%ADD108C,0.071*%
%ADD110R,0.071X0.071*%
%ADD114R,0.0474X0.0513*%
%ADD116R,0.0513X0.0474*%
%FSLAX44Y44*%
%SFA1B1*%
%OFA0B0*%
G04*
G70*
G90*
G75*
G01*
%LNBotMask*%
%LPD*%
D60*
X17460Y11652D3*
X15383Y11680D3*
X16973Y17092D3*
X21999Y19578D3*
X19408Y11682D3*
X21387Y11696D3*
X9813Y11951D3*
X22447Y18163D3*
X22860Y18159D3*
X9841Y11498D3*
X22937Y21454D3*
X24938Y23893D3*
X20578Y13122D3*
Y15435D3*
X22581Y16591D3*
X15483Y17445D3*
X18540Y17390D3*
X18403Y23418D3*
X17328Y19208D3*
X18468Y18474D3*
X18775Y21540D3*
X18010Y22244D3*
X19199Y20565D3*
X19219Y20141D3*
X21193Y20704D3*
X7683Y21920D3*
X10129Y18024D3*
X14795Y19290D3*
X8288Y17708D3*
X11903Y16344D3*
X14740Y21163D3*
X21377Y18685D3*
X13793Y23408D3*
X13755Y18649D3*
X11555Y19966D3*
X18008Y24592D3*
X9784Y12574D3*
Y13029D3*
X13094Y22845D3*
Y17838D3*
X18940Y8302D3*
X19752Y17170D3*
X23442Y21411D3*
X22258Y21494D3*
X24323Y23284D3*
X4771Y18024D3*
X19880Y21087D3*
X9728Y16867D3*
X24472Y11305D3*
X7925Y9683D3*
X9501Y27357D3*
X10257Y26585D3*
X10300Y27263D3*
X21385Y12645D3*
X10296Y22748D3*
X20754Y7631D3*
X24456Y7704D3*
X27059Y20936D3*
X9492Y21398D3*
X6549Y21340D3*
X24925Y19311D3*
X20892Y26033D3*
X26084Y13038D3*
X24915Y19676D3*
X24992Y22118D3*
X23591Y17990D3*
X27520Y26943D3*
X13109Y11904D3*
X20871Y24653D3*
X26187Y22557D3*
X26234Y20945D3*
X27022Y22622D3*
X23504Y32823D3*
X23496Y31260D3*
X10364Y30850D3*
X13262Y29937D3*
D116*
X19489Y19493D3*
X20159D3*
X15875Y21155D3*
X15206D3*
X15941Y17980D3*
X15272D3*
D110*
X22309Y5411D3*
D108*
X23309D3*
D110*
X11438Y8752D3*
D108*
X12438D3*
D110*
X29180Y25739D3*
D108*
Y26739D3*
D110*
X11260Y33067D3*
D108*
X12260D3*
D116*
X16102Y19272D3*
X15433D3*
D110*
X4932Y11890D3*
D108*
X5932D3*
D110*
X29104Y15972D3*
D108*
Y16972D3*
D110*
X26510Y25748D3*
D108*
Y26748D3*
D110*
X26522Y15961D3*
D108*
Y16961D3*
D104*
X11340Y28940D3*
D102*
X12340D3*
X13340D3*
X14340D3*
X15340D3*
X16340D3*
X17340D3*
X18340D3*
X19340D3*
X20340D3*
D104*
X14940Y9940D3*
D102*
X15940D3*
X16940D3*
X17940D3*
X18940D3*
X19940D3*
X20940D3*
X21940D3*
D104*
Y28940D3*
D102*
X22940D3*
X23940D3*
X24940D3*
X25940D3*
X26940D3*
X27940D3*
X28940D3*
D104*
X23940Y9940D3*
D102*
X24940D3*
X25940D3*
X26940D3*
X27940D3*
X28940D3*
D104*
X28995Y20920D3*
D102*
Y19920D3*
Y18920D3*
X29995D3*
Y19920D3*
Y20920D3*
D104*
X22531Y24776D3*
D102*
X23531D3*
X24531D3*
Y25776D3*
X23531D3*
X22531D3*
D98*
X17482Y32996D3*
D94*
X15169Y32746D3*
D92*
X20466Y32535D3*
D91*
Y33535D3*
D92*
X20321Y6732D3*
D91*
Y5732D3*
D57*
X29940Y22940D3*
X9440Y9940D3*
X9940Y28940D3*
X29940Y11940D3*
D104*
X28051Y14200D3*
D102*
X29051D3*
X30051D3*
D104*
X22692Y32043D3*
D102*
Y33043D3*
Y34043D3*
D104*
X11940Y6940D3*
D102*
Y5940D3*
Y4940D3*
D104*
X7124Y28287D3*
D102*
X6124D3*
X5124D3*
G36*
X28647Y5673D2*
X27883Y4910D1*
X27120Y5673D1*
X27883Y6437D1*
X28647Y5673D1*
G37*
D87*
X29272Y7062D3*
G36*
X29369Y32637D2*
X30133Y31873D1*
X29369Y31109D1*
X28605Y31873D1*
X29369Y32637D1*
G37*
D87*
X27980Y33262D3*
G36*
X5535Y7777D2*
X6299Y7014D1*
X5535Y6250D1*
X4772Y7014D1*
X5535Y7777D1*
G37*
D87*
X6924Y5625D3*
G36*
X6282Y33217D2*
X7046Y33981D1*
X7809Y33217D1*
X7046Y32453D1*
X6282Y33217D1*
G37*
D87*
X5657Y31828D3*
D116*
X19239Y21579D3*
X19908D3*
D114*
X18396Y22267D3*
Y22937D3*
D104*
X15165Y6149D3*
D102*
X16165D3*
X17165D3*
D81*
X18966Y18911D3*
X18000Y17930D3*
X17451Y17495D3*
X17069Y17913D3*
X16638Y22003D3*
X16620Y22590D3*
D64*
X17984Y19676D3*
X17988Y19480D3*
Y19283D3*
Y19086D3*
D62*
X17735Y18833D3*
X17538D3*
X17341D3*
X17144D3*
D64*
X16891Y19086D3*
Y19283D3*
Y19480D3*
Y19676D3*
D62*
X17144Y19930D3*
X17341D3*
X17538D3*
X17735D3*
M02*
