G04 DipTrace 2.2.0.9*
%INBottomSilkAF.gbr*%
%MOIN*%
%ADD10C,0.0098*%
%ADD11C,0.006*%
%ADD17C,0.008*%
%ADD53O,0.0115X0.0106*%
%ADD118C,0.0077*%
%ADD120C,0.0175*%
%ADD121C,0.0087*%
%ADD122C,0.0062*%
%FSLAX44Y44*%
%SFA1B1*%
%OFA0B0*%
G04*
G70*
G90*
G75*
G01*
%LNBotSilk*%
%LPD*%
X19116Y19651D2*
D10*
Y19336D1*
X16249Y20997D2*
Y21312D1*
X16315Y17822D2*
Y18137D1*
X16476Y19115D2*
Y19430D1*
X18296Y19926D2*
D17*
Y18801D1*
D53*
X17895Y19840D3*
X18003Y19818D2*
D11*
Y19943D1*
X17877D1*
X17002D2*
X16877D1*
Y19818D1*
Y18943D2*
Y18818D1*
X17002D2*
X16877D1*
X18003D2*
Y18943D1*
Y18818D2*
X17877D1*
X18296Y18801D2*
D17*
X18171Y18926D1*
X18296Y18801D2*
X18421Y18926D1*
X17984Y20239D2*
X16796D1*
X16859Y20364D1*
X16796Y20239D2*
X16859Y20114D1*
X18046Y20208D2*
G02X18046Y20208I219J0D01*
G01*
X19811Y20303D2*
D118*
X19834Y20350D1*
D2*
X19883Y20398D1*
D2*
X19930Y20422D1*
D2*
X20026D1*
D2*
X20074Y20398D1*
D2*
X20121Y20350D1*
D2*
X20146Y20303D1*
D2*
X20169Y20231D1*
D2*
Y20111D1*
D2*
X20146Y20040D1*
D2*
X20121Y19992D1*
D2*
X20074Y19944D1*
D2*
X20026Y19920D1*
D2*
X19930D1*
D2*
X19883Y19944D1*
D2*
X19834Y19992D1*
D2*
X19811Y20040D1*
X19632Y20302D2*
Y20326D1*
D2*
X19608Y20374D1*
D2*
X19584Y20398D1*
D2*
X19536Y20422D1*
D2*
X19441D1*
D2*
X19393Y20398D1*
D2*
X19369Y20374D1*
D2*
X19345Y20326D1*
D2*
Y20279D1*
D2*
X19369Y20230D1*
D2*
X19417Y20159D1*
D2*
X19656Y19920D1*
D2*
X19321D1*
X15697Y20669D2*
X15720Y20716D1*
D2*
X15768Y20764D1*
D2*
X15816Y20788D1*
D2*
X15912D1*
D2*
X15960Y20764D1*
D2*
X16007Y20716D1*
D2*
X16031Y20669D1*
D2*
X16055Y20597D1*
D2*
Y20477D1*
D2*
X16031Y20406D1*
D2*
X16007Y20358D1*
D2*
X15960Y20310D1*
D2*
X15912Y20286D1*
D2*
X15816D1*
D2*
X15768Y20310D1*
D2*
X15720Y20358D1*
D2*
X15697Y20406D1*
X15303Y20286D2*
Y20788D1*
D2*
X15542Y20453D1*
D2*
X15183D1*
X15751Y18789D2*
X15774Y18837D1*
D2*
X15822Y18885D1*
D2*
X15870Y18909D1*
D2*
X15966D1*
D2*
X16014Y18885D1*
D2*
X16061Y18837D1*
D2*
X16085Y18789D1*
D2*
X16109Y18717D1*
D2*
Y18597D1*
D2*
X16085Y18526D1*
D2*
X16061Y18478D1*
D2*
X16014Y18431D1*
D2*
X15966Y18406D1*
D2*
X15870D1*
D2*
X15822Y18431D1*
D2*
X15774Y18478D1*
D2*
X15751Y18526D1*
X15309Y18908D2*
X15548D1*
D2*
X15572Y18693D1*
D2*
X15548Y18717D1*
D2*
X15476Y18741D1*
D2*
X15405D1*
D2*
X15333Y18717D1*
D2*
X15285Y18669D1*
D2*
X15261Y18597D1*
D2*
Y18550D1*
D2*
X15285Y18478D1*
D2*
X15333Y18430D1*
D2*
X15405Y18406D1*
D2*
X15476D1*
D2*
X15548Y18430D1*
D2*
X15572Y18454D1*
D2*
X15596Y18502D1*
X16156Y20082D2*
X16180Y20130D1*
D2*
X16228Y20178D1*
D2*
X16275Y20201D1*
D2*
X16371D1*
D2*
X16419Y20178D1*
D2*
X16467Y20130D1*
D2*
X16491Y20082D1*
D2*
X16515Y20010D1*
D2*
Y19890D1*
D2*
X16491Y19819D1*
D2*
X16467Y19771D1*
D2*
X16419Y19723D1*
D2*
X16371Y19699D1*
D2*
X16275D1*
D2*
X16228Y19723D1*
D2*
X16180Y19771D1*
D2*
X16156Y19819D1*
X15977Y20082D2*
Y20105D1*
D2*
X15953Y20153D1*
D2*
X15930Y20177D1*
D2*
X15882Y20201D1*
D2*
X15786D1*
D2*
X15738Y20177D1*
D2*
X15715Y20153D1*
D2*
X15690Y20105D1*
D2*
Y20058D1*
D2*
X15715Y20010D1*
D2*
X15762Y19938D1*
D2*
X16002Y19699D1*
D2*
X15667D1*
X15488Y20082D2*
Y20105D1*
D2*
X15464Y20153D1*
D2*
X15440Y20177D1*
D2*
X15392Y20201D1*
D2*
X15297D1*
D2*
X15249Y20177D1*
D2*
X15225Y20153D1*
D2*
X15201Y20105D1*
D2*
Y20058D1*
D2*
X15225Y20010D1*
D2*
X15273Y19938D1*
D2*
X15512Y19699D1*
D2*
X15177D1*
X20534Y22236D2*
Y22021D1*
D2*
X20509Y21949D1*
D2*
X20486Y21925D1*
D2*
X20438Y21901D1*
D2*
X20390D1*
D2*
X20343Y21925D1*
D2*
X20318Y21949D1*
D2*
X20294Y22021D1*
D2*
Y22236D1*
D2*
X20797D1*
X20534Y22068D2*
X20797Y21901D1*
X20414Y21722D2*
X20391D1*
D2*
X20343Y21699D1*
D2*
X20319Y21675D1*
D2*
X20295Y21627D1*
D2*
Y21531D1*
D2*
X20319Y21484D1*
D2*
X20343Y21460D1*
D2*
X20391Y21435D1*
D2*
X20438D1*
D2*
X20486Y21460D1*
D2*
X20558Y21507D1*
D2*
X20797Y21747D1*
D2*
Y21412D1*
X20295Y21114D2*
X20319Y21185D1*
D2*
X20391Y21234D1*
D2*
X20510Y21257D1*
D2*
X20582D1*
D2*
X20701Y21234D1*
D2*
X20773Y21185D1*
D2*
X20797Y21114D1*
D2*
Y21066D1*
D2*
X20773Y20994D1*
D2*
X20701Y20947D1*
D2*
X20582Y20922D1*
D2*
X20510D1*
D2*
X20391Y20947D1*
D2*
X20319Y20994D1*
D2*
X20295Y21066D1*
D2*
Y21114D1*
X20391Y20947D2*
X20701Y21234D1*
X17706Y23151D2*
Y22936D1*
D2*
X17682Y22865D1*
D2*
X17658Y22840D1*
D2*
X17611Y22816D1*
D2*
X17563D1*
D2*
X17515Y22840D1*
D2*
X17491Y22865D1*
D2*
X17467Y22936D1*
D2*
Y23151D1*
D2*
X17969D1*
X17706Y22984D2*
X17969Y22816D1*
X17587Y22638D2*
X17563D1*
D2*
X17515Y22614D1*
D2*
X17491Y22590D1*
D2*
X17468Y22542D1*
D2*
Y22447D1*
D2*
X17491Y22399D1*
D2*
X17515Y22375D1*
D2*
X17563Y22351D1*
D2*
X17611D1*
D2*
X17659Y22375D1*
D2*
X17730Y22423D1*
D2*
X17969Y22662D1*
D2*
Y22327D1*
X17563Y22173D2*
X17539Y22125D1*
D2*
X17468Y22053D1*
D2*
X17969D1*
X18189Y21596D2*
Y21237D1*
D2*
X18165Y21166D1*
D2*
X18117Y21118D1*
D2*
X18045Y21094D1*
D2*
X17998D1*
D2*
X17926Y21118D1*
D2*
X17878Y21166D1*
D2*
X17854Y21237D1*
D2*
Y21596D1*
X17461Y21094D2*
Y21596D1*
D2*
X17700Y21261D1*
D2*
X17341D1*
X25506Y15779D2*
D120*
Y14976D1*
X25156Y15511D2*
Y14976D1*
Y15358D2*
X25041Y15473D1*
D2*
X24964Y15511D1*
D2*
X24850D1*
D2*
X24773Y15473D1*
D2*
X24735Y15358D1*
D2*
Y14976D1*
X24270Y15779D2*
Y15128D1*
D2*
X24232Y15014D1*
D2*
X24155Y14976D1*
D2*
X24079D1*
X24385Y15511D2*
X24117D1*
X23729Y15281D2*
X23270D1*
D2*
Y15358D1*
D2*
X23308Y15435D1*
D2*
X23346Y15473D1*
D2*
X23423Y15511D1*
D2*
X23538D1*
D2*
X23614Y15473D1*
D2*
X23691Y15396D1*
D2*
X23729Y15281D1*
D2*
Y15205D1*
D2*
X23691Y15090D1*
D2*
X23614Y15014D1*
D2*
X23538Y14976D1*
D2*
X23423D1*
D2*
X23346Y15014D1*
D2*
X23270Y15090D1*
X22920Y15779D2*
Y14976D1*
X21689Y15779D2*
Y15205D1*
D2*
X21651Y15090D1*
D2*
X21574Y15014D1*
D2*
X21459Y14976D1*
D2*
X21383D1*
D2*
X21268Y15014D1*
D2*
X21191Y15090D1*
D2*
X21153Y15205D1*
D2*
Y15779D1*
X20804D2*
Y14976D1*
X20339Y15779D2*
Y15128D1*
D2*
X20301Y15014D1*
D2*
X20224Y14976D1*
D2*
X20148D1*
X20454Y15511D2*
X20186D1*
X19798Y15779D2*
X19760Y15741D1*
D2*
X19721Y15779D1*
D2*
X19760Y15818D1*
D2*
X19798Y15779D1*
X19760Y15511D2*
Y14976D1*
X19371Y15511D2*
Y14976D1*
Y15358D2*
X19256Y15473D1*
D2*
X19179Y15511D1*
D2*
X19065D1*
D2*
X18988Y15473D1*
D2*
X18950Y15358D1*
D2*
Y14976D1*
Y15358D2*
X18835Y15473D1*
D2*
X18758Y15511D1*
D2*
X18644D1*
D2*
X18567Y15473D1*
D2*
X18528Y15358D1*
D2*
Y14976D1*
X17719Y15511D2*
Y14976D1*
Y15396D2*
X17795Y15473D1*
D2*
X17872Y15511D1*
D2*
X17986D1*
D2*
X18063Y15473D1*
D2*
X18139Y15396D1*
D2*
X18178Y15281D1*
D2*
Y15205D1*
D2*
X18139Y15090D1*
D2*
X18063Y15014D1*
D2*
X17986Y14976D1*
D2*
X17872D1*
D2*
X17795Y15014D1*
D2*
X17719Y15090D1*
X17254Y15779D2*
Y15128D1*
D2*
X17216Y15014D1*
D2*
X17139Y14976D1*
D2*
X17063D1*
X17369Y15511D2*
X17101D1*
X16713Y15281D2*
X16254D1*
D2*
Y15358D1*
D2*
X16292Y15435D1*
D2*
X16330Y15473D1*
D2*
X16407Y15511D1*
D2*
X16522D1*
D2*
X16598Y15473D1*
D2*
X16675Y15396D1*
D2*
X16713Y15281D1*
D2*
Y15205D1*
D2*
X16675Y15090D1*
D2*
X16598Y15014D1*
D2*
X16522Y14976D1*
D2*
X16407D1*
D2*
X16330Y15014D1*
D2*
X16254Y15090D1*
X25058Y13889D2*
X25555D1*
D2*
Y13085D1*
D2*
X25058D1*
X25555Y13506D2*
X25249D1*
X24708Y13621D2*
Y13085D1*
Y13468D2*
X24593Y13583D1*
D2*
X24516Y13621D1*
D2*
X24402D1*
D2*
X24325Y13583D1*
D2*
X24287Y13468D1*
D2*
Y13085D1*
X23478Y13583D2*
Y12970D1*
D2*
X23516Y12856D1*
D2*
X23554Y12817D1*
D2*
X23631Y12779D1*
D2*
X23746D1*
D2*
X23822Y12817D1*
X23478Y13468D2*
X23554Y13544D1*
D2*
X23631Y13583D1*
D2*
X23746D1*
D2*
X23822Y13544D1*
D2*
X23899Y13468D1*
D2*
X23937Y13353D1*
D2*
Y13276D1*
D2*
X23899Y13162D1*
D2*
X23822Y13085D1*
D2*
X23746Y13047D1*
D2*
X23631D1*
D2*
X23554Y13085D1*
D2*
X23478Y13162D1*
X23128Y13889D2*
X23090Y13851D1*
D2*
X23051Y13889D1*
D2*
X23090Y13928D1*
D2*
X23128Y13889D1*
X23090Y13621D2*
Y13085D1*
X22701Y13621D2*
Y13085D1*
Y13468D2*
X22586Y13583D1*
D2*
X22509Y13621D1*
D2*
X22395D1*
D2*
X22318Y13583D1*
D2*
X22280Y13468D1*
D2*
Y13085D1*
X21930Y13391D2*
X21471D1*
D2*
Y13468D1*
D2*
X21509Y13545D1*
D2*
X21547Y13583D1*
D2*
X21624Y13621D1*
D2*
X21739D1*
D2*
X21815Y13583D1*
D2*
X21892Y13506D1*
D2*
X21930Y13391D1*
D2*
Y13315D1*
D2*
X21892Y13200D1*
D2*
X21815Y13124D1*
D2*
X21739Y13085D1*
D2*
X21624D1*
D2*
X21547Y13124D1*
D2*
X21471Y13200D1*
X21121Y13391D2*
X20662D1*
D2*
Y13468D1*
D2*
X20700Y13545D1*
D2*
X20738Y13583D1*
D2*
X20815Y13621D1*
D2*
X20930D1*
D2*
X21006Y13583D1*
D2*
X21083Y13506D1*
D2*
X21121Y13391D1*
D2*
Y13315D1*
D2*
X21083Y13200D1*
D2*
X21006Y13124D1*
D2*
X20930Y13085D1*
D2*
X20815D1*
D2*
X20738Y13124D1*
D2*
X20662Y13200D1*
X20312Y13621D2*
Y13085D1*
Y13391D2*
X20274Y13506D1*
D2*
X20198Y13583D1*
D2*
X20121Y13621D1*
D2*
X20006D1*
X19656Y13889D2*
X19618Y13851D1*
D2*
X19579Y13889D1*
D2*
X19618Y13928D1*
D2*
X19656Y13889D1*
X19618Y13621D2*
Y13085D1*
X19229Y13621D2*
Y13085D1*
Y13468D2*
X19114Y13583D1*
D2*
X19037Y13621D1*
D2*
X18923D1*
D2*
X18846Y13583D1*
D2*
X18808Y13468D1*
D2*
Y13085D1*
X17999Y13583D2*
Y12970D1*
D2*
X18037Y12856D1*
D2*
X18075Y12817D1*
D2*
X18152Y12779D1*
D2*
X18267D1*
D2*
X18343Y12817D1*
X17999Y13468D2*
X18075Y13544D1*
D2*
X18152Y13583D1*
D2*
X18267D1*
D2*
X18343Y13544D1*
D2*
X18420Y13468D1*
D2*
X18458Y13353D1*
D2*
Y13276D1*
D2*
X18420Y13162D1*
D2*
X18343Y13085D1*
D2*
X18267Y13047D1*
D2*
X18152D1*
D2*
X18075Y13085D1*
D2*
X17999Y13162D1*
X16271Y13889D2*
X16768D1*
D2*
Y13085D1*
D2*
X16271D1*
X16768Y13506D2*
X16462D1*
X15921Y13621D2*
X15501Y13085D1*
Y13621D2*
X15921Y13085D1*
X15151Y13621D2*
Y12817D1*
Y13506D2*
X15074Y13582D1*
D2*
X14998Y13621D1*
D2*
X14883D1*
D2*
X14806Y13582D1*
D2*
X14730Y13506D1*
D2*
X14691Y13391D1*
D2*
Y13314D1*
D2*
X14730Y13200D1*
D2*
X14806Y13123D1*
D2*
X14883Y13085D1*
D2*
X14998D1*
D2*
X15074Y13123D1*
D2*
X15151Y13200D1*
X14341Y13391D2*
X13882D1*
D2*
Y13468D1*
D2*
X13920Y13545D1*
D2*
X13958Y13583D1*
D2*
X14035Y13621D1*
D2*
X14150D1*
D2*
X14226Y13583D1*
D2*
X14303Y13506D1*
D2*
X14341Y13391D1*
D2*
Y13315D1*
D2*
X14303Y13200D1*
D2*
X14226Y13124D1*
D2*
X14150Y13085D1*
D2*
X14035D1*
D2*
X13958Y13124D1*
D2*
X13882Y13200D1*
X13532Y13621D2*
Y13085D1*
Y13391D2*
X13493Y13506D1*
D2*
X13417Y13583D1*
D2*
X13340Y13621D1*
D2*
X13225D1*
X12875Y13889D2*
X12837Y13851D1*
D2*
X12798Y13889D1*
D2*
X12837Y13928D1*
D2*
X12875Y13889D1*
X12837Y13621D2*
Y13085D1*
X12448Y13391D2*
X11989D1*
D2*
Y13468D1*
D2*
X12027Y13545D1*
D2*
X12065Y13583D1*
D2*
X12142Y13621D1*
D2*
X12257D1*
D2*
X12333Y13583D1*
D2*
X12410Y13506D1*
D2*
X12448Y13391D1*
D2*
Y13315D1*
D2*
X12410Y13200D1*
D2*
X12333Y13124D1*
D2*
X12257Y13085D1*
D2*
X12142D1*
D2*
X12065Y13124D1*
D2*
X11989Y13200D1*
X11639Y13621D2*
Y13085D1*
Y13468D2*
X11524Y13583D1*
D2*
X11447Y13621D1*
D2*
X11333D1*
D2*
X11256Y13583D1*
D2*
X11218Y13468D1*
D2*
Y13085D1*
X10409Y13506D2*
X10485Y13583D1*
D2*
X10562Y13621D1*
D2*
X10676D1*
D2*
X10753Y13583D1*
D2*
X10829Y13506D1*
D2*
X10868Y13391D1*
D2*
Y13315D1*
D2*
X10829Y13200D1*
D2*
X10753Y13124D1*
D2*
X10676Y13085D1*
D2*
X10562D1*
D2*
X10485Y13124D1*
D2*
X10409Y13200D1*
X10059Y13391D2*
X9600D1*
D2*
Y13468D1*
D2*
X9638Y13545D1*
D2*
X9676Y13583D1*
D2*
X9753Y13621D1*
D2*
X9868D1*
D2*
X9944Y13583D1*
D2*
X10021Y13506D1*
D2*
X10059Y13391D1*
D2*
Y13315D1*
D2*
X10021Y13200D1*
D2*
X9944Y13124D1*
D2*
X9868Y13085D1*
D2*
X9753D1*
D2*
X9676Y13124D1*
D2*
X9600Y13200D1*
X8101Y14098D2*
X8178Y14022D1*
D2*
X8254Y13907D1*
D2*
X8331Y13754D1*
D2*
X8369Y13563D1*
D2*
Y13410D1*
D2*
X8331Y13219D1*
D2*
X8254Y13066D1*
D2*
X8178Y12951D1*
D2*
X8101Y12875D1*
X7751Y13889D2*
Y13085D1*
X7401Y13889D2*
Y13315D1*
D2*
X7363Y13200D1*
D2*
X7286Y13124D1*
D2*
X7171Y13085D1*
D2*
X7095D1*
D2*
X6980Y13124D1*
D2*
X6903Y13200D1*
D2*
X6865Y13315D1*
D2*
Y13889D1*
X6018D2*
X6515D1*
D2*
Y13085D1*
D2*
X6018D1*
X6515Y13506D2*
X6209D1*
X5171Y13889D2*
X5668D1*
D2*
Y13085D1*
D2*
X5171D1*
X5668Y13506D2*
X5362D1*
X4822Y14098D2*
X4745Y14022D1*
D2*
X4669Y13907D1*
D2*
X4592Y13754D1*
D2*
X4554Y13563D1*
D2*
Y13410D1*
D2*
X4592Y13219D1*
D2*
X4669Y13066D1*
D2*
X4745Y12951D1*
D2*
X4822Y12875D1*
X29523Y30807D2*
D121*
X29561Y30883D1*
D2*
X29638Y30960D1*
D2*
X29714Y30998D1*
D2*
X29867D1*
D2*
X29944Y30960D1*
D2*
X30020Y30883D1*
D2*
X30059Y30807D1*
D2*
X30097Y30692D1*
D2*
Y30500D1*
D2*
X30059Y30386D1*
D2*
X30020Y30309D1*
D2*
X29944Y30233D1*
D2*
X29867Y30194D1*
D2*
X29714D1*
D2*
X29638Y30233D1*
D2*
X29561Y30309D1*
D2*
X29523Y30386D1*
X29348Y30998D2*
Y30194D1*
Y30577D2*
X29233Y30692D1*
D2*
X29157Y30730D1*
D2*
X29042D1*
D2*
X28966Y30692D1*
D2*
X28928Y30577D1*
D2*
Y30194D1*
X28294Y30730D2*
Y30194D1*
Y30615D2*
X28370Y30692D1*
D2*
X28447Y30730D1*
D2*
X28561D1*
D2*
X28638Y30692D1*
D2*
X28714Y30615D1*
D2*
X28753Y30500D1*
D2*
Y30424D1*
D2*
X28714Y30309D1*
D2*
X28638Y30233D1*
D2*
X28561Y30194D1*
D2*
X28447D1*
D2*
X28370Y30233D1*
D2*
X28294Y30309D1*
X28119Y30730D2*
Y30194D1*
Y30577D2*
X28004Y30692D1*
D2*
X27927Y30730D1*
D2*
X27813D1*
D2*
X27736Y30692D1*
D2*
X27698Y30577D1*
D2*
Y30194D1*
X27064Y30998D2*
Y30194D1*
Y30615D2*
X27140Y30692D1*
D2*
X27217Y30730D1*
D2*
X27332D1*
D2*
X27408Y30692D1*
D2*
X27485Y30615D1*
D2*
X27523Y30500D1*
D2*
Y30424D1*
D2*
X27485Y30309D1*
D2*
X27408Y30233D1*
D2*
X27332Y30194D1*
D2*
X27217D1*
D2*
X27140Y30233D1*
D2*
X27064Y30309D1*
X26889Y30998D2*
Y30194D1*
X26714Y30500D2*
X26255D1*
D2*
Y30577D1*
D2*
X26293Y30654D1*
D2*
X26331Y30692D1*
D2*
X26408Y30730D1*
D2*
X26523D1*
D2*
X26599Y30692D1*
D2*
X26676Y30615D1*
D2*
X26714Y30500D1*
D2*
Y30424D1*
D2*
X26676Y30309D1*
D2*
X26599Y30233D1*
D2*
X26523Y30194D1*
D2*
X26408D1*
D2*
X26331Y30233D1*
D2*
X26255Y30309D1*
X26080Y30730D2*
Y30194D1*
Y30500D2*
X26041Y30615D1*
D2*
X25965Y30692D1*
D2*
X25888Y30730D1*
D2*
X25773D1*
X24395Y30998D2*
X24892D1*
D2*
Y30194D1*
D2*
X24395D1*
X24892Y30615D2*
X24586D1*
X24220Y30730D2*
Y30194D1*
Y30577D2*
X24106Y30692D1*
D2*
X24029Y30730D1*
D2*
X23914D1*
D2*
X23838Y30692D1*
D2*
X23800Y30577D1*
D2*
Y30194D1*
Y30577D2*
X23685Y30692D1*
D2*
X23608Y30730D1*
D2*
X23494D1*
D2*
X23417Y30692D1*
D2*
X23378Y30577D1*
D2*
Y30194D1*
X23203Y30998D2*
Y30194D1*
Y30615D2*
X23126Y30692D1*
D2*
X23050Y30730D1*
D2*
X22935D1*
D2*
X22859Y30692D1*
D2*
X22782Y30615D1*
D2*
X22744Y30500D1*
D2*
Y30424D1*
D2*
X22782Y30309D1*
D2*
X22859Y30233D1*
D2*
X22935Y30194D1*
D2*
X23050D1*
D2*
X23126Y30233D1*
D2*
X23203Y30309D1*
X22569Y30500D2*
X22110D1*
D2*
Y30577D1*
D2*
X22148Y30654D1*
D2*
X22186Y30692D1*
D2*
X22263Y30730D1*
D2*
X22378D1*
D2*
X22454Y30692D1*
D2*
X22531Y30615D1*
D2*
X22569Y30500D1*
D2*
Y30424D1*
D2*
X22531Y30309D1*
D2*
X22454Y30233D1*
D2*
X22378Y30194D1*
D2*
X22263D1*
D2*
X22186Y30233D1*
D2*
X22110Y30309D1*
X21476Y30998D2*
Y30194D1*
Y30615D2*
X21552Y30692D1*
D2*
X21629Y30730D1*
D2*
X21744D1*
D2*
X21820Y30692D1*
D2*
X21897Y30615D1*
D2*
X21935Y30500D1*
D2*
Y30424D1*
D2*
X21897Y30309D1*
D2*
X21820Y30233D1*
D2*
X21744Y30194D1*
D2*
X21629D1*
D2*
X21552Y30233D1*
D2*
X21476Y30309D1*
X20842Y30998D2*
Y30194D1*
Y30615D2*
X20918Y30692D1*
D2*
X20995Y30730D1*
D2*
X21110D1*
D2*
X21186Y30692D1*
D2*
X21263Y30615D1*
D2*
X21301Y30500D1*
D2*
Y30424D1*
D2*
X21263Y30309D1*
D2*
X21186Y30233D1*
D2*
X21110Y30194D1*
D2*
X20995D1*
D2*
X20918Y30233D1*
D2*
X20842Y30309D1*
X20667Y30500D2*
X20208D1*
D2*
Y30577D1*
D2*
X20246Y30654D1*
D2*
X20284Y30692D1*
D2*
X20361Y30730D1*
D2*
X20476D1*
D2*
X20552Y30692D1*
D2*
X20629Y30615D1*
D2*
X20667Y30500D1*
D2*
Y30424D1*
D2*
X20629Y30309D1*
D2*
X20552Y30233D1*
D2*
X20476Y30194D1*
D2*
X20361D1*
D2*
X20284Y30233D1*
D2*
X20208Y30309D1*
X19574Y30998D2*
Y30194D1*
Y30615D2*
X19650Y30692D1*
D2*
X19727Y30730D1*
D2*
X19842D1*
D2*
X19918Y30692D1*
D2*
X19995Y30615D1*
D2*
X20033Y30500D1*
D2*
Y30424D1*
D2*
X19995Y30309D1*
D2*
X19918Y30233D1*
D2*
X19842Y30194D1*
D2*
X19727D1*
D2*
X19650Y30233D1*
D2*
X19574Y30309D1*
X18694Y30998D2*
Y30194D1*
X18519Y30730D2*
Y30194D1*
Y30577D2*
X18404Y30692D1*
D2*
X18327Y30730D1*
D2*
X18213D1*
D2*
X18136Y30692D1*
D2*
X18098Y30577D1*
D2*
Y30194D1*
X17923Y30730D2*
Y30194D1*
Y30577D2*
X17808Y30692D1*
D2*
X17731Y30730D1*
D2*
X17617D1*
D2*
X17540Y30692D1*
D2*
X17502Y30577D1*
D2*
Y30194D1*
X17136Y30730D2*
X17212Y30692D1*
D2*
X17289Y30615D1*
D2*
X17327Y30500D1*
D2*
Y30424D1*
D2*
X17289Y30309D1*
D2*
X17212Y30233D1*
D2*
X17136Y30194D1*
D2*
X17021D1*
D2*
X16944Y30233D1*
D2*
X16868Y30309D1*
D2*
X16829Y30424D1*
D2*
Y30500D1*
D2*
X16868Y30615D1*
D2*
X16944Y30692D1*
D2*
X17021Y30730D1*
D2*
X17136D1*
X16654D2*
X16424Y30194D1*
D2*
X16195Y30730D1*
X15561D2*
Y30194D1*
Y30615D2*
X15637Y30692D1*
D2*
X15714Y30730D1*
D2*
X15828D1*
D2*
X15905Y30692D1*
D2*
X15981Y30615D1*
D2*
X16020Y30500D1*
D2*
Y30424D1*
D2*
X15981Y30309D1*
D2*
X15905Y30233D1*
D2*
X15828Y30194D1*
D2*
X15714D1*
D2*
X15637Y30233D1*
D2*
X15561Y30309D1*
X15271Y30998D2*
Y30347D1*
D2*
X15233Y30233D1*
D2*
X15156Y30194D1*
D2*
X15080D1*
X15386Y30730D2*
X15118D1*
X14905Y30998D2*
X14867Y30960D1*
D2*
X14828Y30998D1*
D2*
X14867Y31037D1*
D2*
X14905Y30998D1*
X14867Y30730D2*
Y30194D1*
X14462Y30730D2*
X14538Y30692D1*
D2*
X14615Y30615D1*
D2*
X14653Y30500D1*
D2*
Y30424D1*
D2*
X14615Y30309D1*
D2*
X14538Y30233D1*
D2*
X14462Y30194D1*
D2*
X14347D1*
D2*
X14270Y30233D1*
D2*
X14194Y30309D1*
D2*
X14155Y30424D1*
D2*
Y30500D1*
D2*
X14194Y30615D1*
D2*
X14270Y30692D1*
D2*
X14347Y30730D1*
D2*
X14462D1*
X13980D2*
Y30194D1*
Y30577D2*
X13865Y30692D1*
D2*
X13788Y30730D1*
D2*
X13674D1*
D2*
X13597Y30692D1*
D2*
X13559Y30577D1*
D2*
Y30194D1*
X12105Y30807D2*
X12143Y30883D1*
D2*
X12220Y30960D1*
D2*
X12296Y30998D1*
D2*
X12449D1*
D2*
X12526Y30960D1*
D2*
X12602Y30883D1*
D2*
X12641Y30807D1*
D2*
X12679Y30692D1*
D2*
Y30500D1*
D2*
X12641Y30386D1*
D2*
X12602Y30309D1*
D2*
X12526Y30233D1*
D2*
X12449Y30194D1*
D2*
X12296D1*
D2*
X12220Y30233D1*
D2*
X12143Y30309D1*
D2*
X12105Y30386D1*
X11930Y30500D2*
X11471D1*
D2*
Y30577D1*
D2*
X11509Y30654D1*
D2*
X11547Y30692D1*
D2*
X11624Y30730D1*
D2*
X11739D1*
D2*
X11815Y30692D1*
D2*
X11892Y30615D1*
D2*
X11930Y30500D1*
D2*
Y30424D1*
D2*
X11892Y30309D1*
D2*
X11815Y30233D1*
D2*
X11739Y30194D1*
D2*
X11624D1*
D2*
X11547Y30233D1*
D2*
X11471Y30309D1*
X11296Y30730D2*
Y30194D1*
Y30577D2*
X11181Y30692D1*
D2*
X11104Y30730D1*
D2*
X10990D1*
D2*
X10913Y30692D1*
D2*
X10875Y30577D1*
D2*
Y30194D1*
X10585Y30998D2*
Y30347D1*
D2*
X10547Y30233D1*
D2*
X10470Y30194D1*
D2*
X10394D1*
X10700Y30730D2*
X10432D1*
X10219Y30500D2*
X9760D1*
D2*
Y30577D1*
D2*
X9798Y30654D1*
D2*
X9836Y30692D1*
D2*
X9913Y30730D1*
D2*
X10028D1*
D2*
X10104Y30692D1*
D2*
X10181Y30615D1*
D2*
X10219Y30500D1*
D2*
Y30424D1*
D2*
X10181Y30309D1*
D2*
X10104Y30233D1*
D2*
X10028Y30194D1*
D2*
X9913D1*
D2*
X9836Y30233D1*
D2*
X9760Y30309D1*
X9585Y30730D2*
Y30194D1*
Y30500D2*
X9546Y30615D1*
D2*
X9470Y30692D1*
D2*
X9393Y30730D1*
D2*
X9278D1*
X8130Y31208D2*
X8207Y31132D1*
D2*
X8283Y31017D1*
D2*
X8360Y30864D1*
D2*
X8398Y30672D1*
D2*
Y30519D1*
D2*
X8360Y30328D1*
D2*
X8283Y30175D1*
D2*
X8207Y30060D1*
D2*
X8130Y29984D1*
X7381Y30807D2*
X7419Y30883D1*
D2*
X7496Y30960D1*
D2*
X7572Y30998D1*
D2*
X7725D1*
D2*
X7802Y30960D1*
D2*
X7878Y30883D1*
D2*
X7917Y30807D1*
D2*
X7955Y30692D1*
D2*
Y30500D1*
D2*
X7917Y30386D1*
D2*
X7878Y30309D1*
D2*
X7802Y30233D1*
D2*
X7725Y30194D1*
D2*
X7572D1*
D2*
X7496Y30233D1*
D2*
X7419Y30309D1*
D2*
X7381Y30386D1*
X6709Y30998D2*
X7206D1*
D2*
Y30194D1*
D2*
X6709D1*
X7206Y30615D2*
X6900D1*
X6534Y30998D2*
Y30194D1*
X5785Y30807D2*
X5823Y30883D1*
D2*
X5900Y30960D1*
D2*
X5976Y30998D1*
D2*
X6129D1*
D2*
X6206Y30960D1*
D2*
X6282Y30883D1*
D2*
X6321Y30807D1*
D2*
X6359Y30692D1*
D2*
Y30500D1*
D2*
X6321Y30386D1*
D2*
X6282Y30309D1*
D2*
X6206Y30233D1*
D2*
X6129Y30194D1*
D2*
X5976D1*
D2*
X5900Y30233D1*
D2*
X5823Y30309D1*
D2*
X5785Y30386D1*
X5610Y31208D2*
X5533Y31132D1*
D2*
X5457Y31017D1*
D2*
X5380Y30864D1*
D2*
X5342Y30672D1*
D2*
Y30519D1*
D2*
X5380Y30328D1*
D2*
X5457Y30175D1*
D2*
X5533Y30060D1*
D2*
X5610Y29984D1*
X20244Y27393D2*
Y26857D1*
Y27240D2*
X20129Y27355D1*
D2*
X20052Y27393D1*
D2*
X19938D1*
D2*
X19861Y27355D1*
D2*
X19823Y27240D1*
D2*
Y26857D1*
Y27240D2*
X19708Y27355D1*
D2*
X19631Y27393D1*
D2*
X19517D1*
D2*
X19440Y27355D1*
D2*
X19401Y27240D1*
D2*
Y26857D1*
X19187Y27393D2*
X18958Y26857D1*
D2*
X19034Y26704D1*
D2*
X19111Y26627D1*
D2*
X19187Y26589D1*
D2*
X19226D1*
X18728Y27393D2*
X18958Y26857D1*
X18324Y27661D2*
X18400Y27624D1*
D2*
X18477Y27547D1*
D2*
X18515Y27470D1*
D2*
X18553Y27355D1*
D2*
Y27164D1*
D2*
X18515Y27049D1*
D2*
X18477Y26973D1*
D2*
X18400Y26896D1*
D2*
X18324Y26858D1*
D2*
X18171D1*
D2*
X18094Y26896D1*
D2*
X18018Y26973D1*
D2*
X17980Y27049D1*
D2*
X17941Y27164D1*
D2*
Y27355D1*
D2*
X17980Y27470D1*
D2*
X18018Y27547D1*
D2*
X18094Y27624D1*
D2*
X18171Y27661D1*
D2*
X18324D1*
X18209Y27011D2*
X17980Y26781D1*
X17766Y27393D2*
Y27010D1*
D2*
X17728Y26896D1*
D2*
X17651Y26857D1*
D2*
X17536D1*
D2*
X17460Y26896D1*
D2*
X17345Y27010D1*
Y27393D2*
Y26857D1*
X16711Y27393D2*
Y26857D1*
Y27278D2*
X16787Y27355D1*
D2*
X16864Y27393D1*
D2*
X16978D1*
D2*
X17055Y27355D1*
D2*
X17131Y27278D1*
D2*
X17170Y27163D1*
D2*
Y27087D1*
D2*
X17131Y26972D1*
D2*
X17055Y26896D1*
D2*
X16978Y26857D1*
D2*
X16864D1*
D2*
X16787Y26896D1*
D2*
X16711Y26972D1*
X16077Y27661D2*
Y26857D1*
Y27278D2*
X16153Y27355D1*
D2*
X16230Y27393D1*
D2*
X16345D1*
D2*
X16421Y27355D1*
D2*
X16498Y27278D1*
D2*
X16536Y27163D1*
D2*
Y27087D1*
D2*
X16498Y26972D1*
D2*
X16421Y26896D1*
D2*
X16345Y26857D1*
D2*
X16230D1*
D2*
X16153Y26896D1*
D2*
X16077Y26972D1*
X15196Y27278D2*
X14852D1*
D2*
X14737Y27317D1*
D2*
X14698Y27355D1*
D2*
X14660Y27431D1*
D2*
Y27508D1*
D2*
X14698Y27584D1*
D2*
X14737Y27623D1*
D2*
X14852Y27661D1*
D2*
X15196D1*
D2*
Y26857D1*
X14928Y27278D2*
X14660Y26857D1*
X13988Y27661D2*
X14485D1*
D2*
Y26857D1*
D2*
X13988D1*
X14485Y27278D2*
X14179D1*
X13813Y27661D2*
X13507Y26857D1*
D2*
X13202Y27661D1*
X11708Y26857D2*
X12015Y27661D1*
D2*
X12321Y26857D1*
X12206Y27125D2*
X11823D1*
X11035Y27661D2*
X11533D1*
D2*
Y26857D1*
Y27278D2*
X11227D1*
X18771Y26251D2*
X18580Y25447D1*
D2*
X18388Y26251D1*
D2*
X18197Y25447D1*
D2*
X18006Y26251D1*
X17831D2*
X17793Y26213D1*
D2*
X17754Y26251D1*
D2*
X17793Y26290D1*
D2*
X17831Y26251D1*
X17793Y25983D2*
Y25447D1*
X17579Y25983D2*
Y25447D1*
Y25830D2*
X17464Y25945D1*
D2*
X17387Y25983D1*
D2*
X17273D1*
D2*
X17196Y25945D1*
D2*
X17158Y25830D1*
D2*
Y25447D1*
X16983Y25849D2*
X16541D1*
X15869Y26251D2*
X16366D1*
D2*
Y25447D1*
D2*
X15869D1*
X16366Y25868D2*
X16060D1*
X15694Y25983D2*
Y25447D1*
Y25830D2*
X15579Y25945D1*
D2*
X15502Y25983D1*
D2*
X15388D1*
D2*
X15311Y25945D1*
D2*
X15273Y25830D1*
D2*
Y25447D1*
X14983Y26251D2*
Y25600D1*
D2*
X14945Y25486D1*
D2*
X14868Y25447D1*
D2*
X14792D1*
X15098Y25983D2*
X14830D1*
X14579Y25524D2*
X14617Y25486D1*
D2*
X14579Y25447D1*
D2*
X14540Y25486D1*
D2*
X14579Y25524D1*
X13905Y25868D2*
X13982Y25945D1*
D2*
X14059Y25983D1*
D2*
X14173D1*
D2*
X14250Y25945D1*
D2*
X14326Y25868D1*
D2*
X14365Y25753D1*
D2*
Y25677D1*
D2*
X14326Y25562D1*
D2*
X14250Y25486D1*
D2*
X14173Y25447D1*
D2*
X14059D1*
D2*
X13982Y25486D1*
D2*
X13905Y25562D1*
X13539Y25983D2*
X13615Y25945D1*
D2*
X13692Y25868D1*
D2*
X13730Y25753D1*
D2*
Y25677D1*
D2*
X13692Y25562D1*
D2*
X13615Y25486D1*
D2*
X13539Y25447D1*
D2*
X13424D1*
D2*
X13347Y25486D1*
D2*
X13271Y25562D1*
D2*
X13232Y25677D1*
D2*
Y25753D1*
D2*
X13271Y25868D1*
D2*
X13347Y25945D1*
D2*
X13424Y25983D1*
D2*
X13539D1*
X13057D2*
Y25447D1*
Y25830D2*
X12942Y25945D1*
D2*
X12865Y25983D1*
D2*
X12751D1*
D2*
X12674Y25945D1*
D2*
X12636Y25830D1*
D2*
Y25447D1*
Y25830D2*
X12521Y25945D1*
D2*
X12444Y25983D1*
D2*
X12330D1*
D2*
X12253Y25945D1*
D2*
X12214Y25830D1*
D2*
Y25447D1*
X17641Y20728D2*
D122*
X17488Y20537D1*
D2*
Y20326D1*
X17335Y20728D2*
X17488Y20537D1*
X18703Y19666D2*
X18435Y19264D1*
Y19666D2*
X18703Y19264D1*
M02*
