M48
INCH
T01C0.015
T02C0.0354
T03C0.04
T04C0.05
T05C0.0511
T06C0.065
T07C0.125
%
T01
X+017460Y+011652
X+019408Y+011682
X+020578Y+013122
X+021385Y+012645
X+021387Y+011696
X+024472Y+011305
X+026084Y+013038
X+022581Y+016591
X+022447Y+018163
X+022860Y+018159
X+023591Y+017990
X+024925Y+019311
X+024915Y+019676
X+026234Y+020945
X+027059Y+020936
X+027022Y+022622
X+026187Y+022557
X+024992Y+022118
X+024323Y+023284
X+024938Y+023893
X+023442Y+021411
X+022937Y+021454
X+022258Y+021494
X+021193Y+020704
X+019880Y+021087
X+019199Y+020565
X+019219Y+020141
X+018775Y+021540
X+018010Y+022244
X+018403Y+023418
X+018008Y+024592
X+020871Y+024653
X+020892Y+026033
X+023496Y+031260
X+023504Y+032823
X+027520Y+026943
X+021999Y+019578
X+021377Y+018685
X+019752Y+017170
X+018540Y+017390
X+018468Y+018474
X+017328Y+019208
X+016973Y+017092
X+015483Y+017445
X+014795Y+019290
X+013755Y+018649
X+013094Y+017838
X+011903Y+016344
X+009728Y+016867
X+010129Y+018024
X+008288Y+017708
X+004771Y+018024
X+006549Y+021340
X+007683Y+021920
X+009492Y+021398
X+010296Y+022748
X+013094Y+022845
X+013793Y+023408
X+014740Y+021163
X+011555Y+019966
X+010257Y+026585
X+010300Y+027263
X+009501Y+027357
X+010364Y+030850
X+013262Y+029937
X+020578Y+015435
X+015383Y+011680
X+013109Y+011904
X+009841Y+011498
X+009813Y+011951
X+009784Y+012574
X+009784Y+013029
X+007925Y+009683
X+018940Y+008302
X+020754Y+007631
X+024456Y+007704
T02
X+022309Y+005411
X+023309Y+005411
X+026522Y+015961
X+026522Y+016961
X+029104Y+016972
X+029104Y+015972
X+029180Y+025739
X+029180Y+026739
X+026510Y+026748
X+026510Y+025748
X+012260Y+033067
X+011260Y+033067
X+005932Y+011890
X+004932Y+011890
X+011438Y+008752
X+012438Y+008752
T03
X+011340Y+028940
X+012340Y+028940
X+013340Y+028940
X+014340Y+028940
X+015340Y+028940
X+016340Y+028940
X+017340Y+028940
X+018340Y+028940
X+019340Y+028940
X+020340Y+028940
X+021940Y+028940
X+022940Y+028940
X+023940Y+028940
X+024940Y+028940
X+025940Y+028940
X+026940Y+028940
X+027940Y+028940
X+028940Y+028940
X+024531Y+025776
X+024531Y+024776
X+023531Y+024776
X+022531Y+024776
X+022531Y+025776
X+023531Y+025776
X+022692Y+032043
X+022692Y+033043
X+022692Y+034043
X+028995Y+020920
X+028995Y+019920
X+028995Y+018920
X+029995Y+018920
X+029995Y+019920
X+029995Y+020920
X+030051Y+014200
X+029051Y+014200
X+028051Y+014200
X+027940Y+009940
X+028940Y+009940
X+026940Y+009940
X+025940Y+009940
X+024940Y+009940
X+023940Y+009940
X+021940Y+009940
X+020940Y+009940
X+019940Y+009940
X+018940Y+009940
X+017940Y+009940
X+016940Y+009940
X+015940Y+009940
X+014940Y+009940
X+015165Y+006149
X+016165Y+006149
X+017165Y+006149
X+011940Y+005940
X+011940Y+006940
X+011940Y+004940
X+007124Y+028287
X+006124Y+028287
X+005124Y+028287
T04
X+020466Y+032535
X+020466Y+033535
X+020321Y+006732
X+020321Y+005732
T05
X+027883Y+005673
X+029272Y+007062
X+006924Y+005625
X+005535Y+007014
X+005657Y+031828
X+007046Y+033217
X+027980Y+033262
X+029369Y+031873
T06
X+017482Y+032446G85X+017482Y+033546
X+015719Y+032746G85X+014619Y+032746
T07
X+029940Y+022940
X+029940Y+011940
X+009440Y+009940
X+009940Y+028940
T00
M30
