G04 DipTrace 2.2.0.9*
%INTopAF.gbr*%
%MOIN*%
%ADD13C,0.01*%
%ADD14C,0.013*%
%ADD15C,0.0118*%
%ADD16C,0.03*%
%ADD17C,0.008*%
%ADD18C,0.04*%
%ADD19C,0.05*%
%ADD20C,0.1*%
%ADD22R,0.0433X0.0394*%
%ADD23R,0.0394X0.0433*%
%ADD24R,0.0512X0.0591*%
%ADD25R,0.063X0.063*%
%ADD26C,0.063*%
%ADD27R,0.0591X0.0512*%
%ADD28R,0.065X0.065*%
%ADD29C,0.065*%
%ADD31R,0.035X0.079*%
%ADD32R,0.1X0.2*%
%ADD34R,0.2X0.1*%
%ADD36R,0.075X0.075*%
%ADD37C,0.075*%
%ADD38R,0.0472X0.0394*%
%ADD40R,0.0374X0.0846*%
%ADD41R,0.128X0.0846*%
%ADD42C,0.0591*%
%ADD44O,0.0118X0.0335*%
%ADD45O,0.0335X0.0118*%
%ADD47R,0.0315X0.0118*%
%ADD48R,0.0118X0.0315*%
%ADD50R,0.0315X0.0657*%
%ADD51R,0.0657X0.0315*%
%ADD52R,0.0984X0.0315*%
%FSLAX44Y44*%
%SFA1B1*%
%OFA0B0*%
G04*
G70*
G90*
G75*
G01*
%LNTop*%
%LPD*%
X9722Y18019D2*
D13*
X9226D1*
X8796Y18449D1*
X9031Y19184D2*
Y18684D1*
X8796Y18449D1*
X17406Y17382D2*
X17026D1*
X16956Y17453D1*
Y18631D1*
X22936Y21025D2*
D14*
Y22562D1*
X23089Y22714D1*
X22937Y21454D2*
Y21026D1*
X22936Y21025D1*
X25411Y23960D2*
X25005D1*
X24938Y23893D1*
X22870Y17025D2*
Y16880D1*
X22581Y16591D1*
X22371Y17026D2*
Y16801D1*
X22581Y16591D1*
X16956Y17453D2*
Y17109D1*
X16973Y17092D1*
X21342Y19843D2*
X21614D1*
X21879Y19578D1*
X21999D1*
X9722Y18019D2*
X10124D1*
X10129Y18024D1*
X4932Y11890D2*
D16*
Y13146D1*
Y14213D1*
X4794Y14351D1*
X4932Y13146D2*
X7545D1*
X8377D1*
X9460D1*
X9667D1*
X9784Y13029D1*
X9460Y13146D2*
Y12898D1*
X9784Y12574D1*
X7545Y13146D2*
D14*
Y12582D1*
X7541Y12578D1*
X8377Y13146D2*
Y12609D1*
X8351Y12582D1*
X13777Y22929D2*
Y23392D1*
X13793Y23408D1*
X13777Y19134D2*
Y18671D1*
X13755Y18649D1*
X7009Y21359D2*
X6568D1*
X6549Y21340D1*
X9011Y21380D2*
X9474D1*
X9492Y21398D1*
X23056Y20188D2*
D15*
Y20411D1*
D14*
Y20905D1*
X22936Y21025D1*
X22692Y19568D2*
D15*
X22469D1*
D14*
X22009D1*
X21999Y19578D1*
X23568Y18692D2*
D15*
Y18469D1*
D14*
Y18014D1*
X23591Y17990D1*
X4794Y14351D2*
Y16794D1*
X4720Y16868D1*
X20636Y11681D2*
X21372D1*
X21387Y11696D1*
X18167Y11679D2*
X17488D1*
X17460Y11652D1*
X16725Y11688D2*
X17424D1*
X17460Y11652D1*
X10300Y27263D2*
X9877D1*
X8381Y25767D1*
X6512D1*
X6415Y25670D1*
X10300Y27263D2*
X9835Y27729D1*
X9224D1*
X8723Y27228D1*
X6377D1*
X6405Y27200D1*
X21388Y13082D2*
Y12649D1*
X21385Y12645D1*
X23531Y24776D2*
D17*
Y25075D1*
X24038Y25582D1*
Y27083D1*
X24135Y27180D1*
X24160D1*
X24413Y27433D1*
X27433D1*
X28940Y28940D1*
X23531Y25776D2*
Y26952D1*
X24260Y27681D1*
X26681D1*
X27940Y28940D1*
X8686Y24266D2*
D14*
X8106D1*
X7160Y23320D1*
Y22683D1*
X6933Y22455D1*
X6948D1*
X6092Y21600D1*
Y18107D1*
X7319Y16880D1*
X9072D1*
X9413Y16538D1*
X10210D1*
X10642Y16971D1*
X12258D1*
X12281Y16948D1*
X12850D1*
X13760Y16037D1*
X15976D1*
X16710Y15304D1*
Y15470D1*
X16856D1*
X16721Y15336D1*
X14792Y30169D2*
D18*
Y30053D1*
X14420Y29682D1*
Y29020D1*
X14340Y28940D1*
X5932Y11890D2*
D16*
X7480D1*
X7541Y11830D1*
X8351Y11834D2*
X9582D1*
X9697D1*
X9813Y11951D1*
X9582Y11834D2*
Y11757D1*
X9841Y11498D1*
X7541Y11830D2*
X8346D1*
X8351Y11834D1*
X18836Y11679D2*
D14*
X19965D1*
X19967Y11681D1*
X15977Y11688D2*
X15391D1*
X15383Y11680D1*
X19967Y11681D2*
X19409D1*
X19408Y11682D1*
X18075Y17382D2*
X18532D1*
X18540Y17390D1*
X19746Y17710D2*
Y17176D1*
X19752Y17170D1*
X20089Y15400D2*
X20543D1*
X20578Y15435D1*
X21342Y19173D2*
Y18720D1*
X21377Y18685D1*
X13819Y20674D2*
X14742D1*
X14840D1*
X14997Y20517D1*
X14742Y20674D2*
Y21161D1*
X14740Y21163D1*
X24999Y23417D2*
X24457D1*
X24323Y23284D1*
X22533Y22739D2*
Y21768D1*
X22258Y21494D1*
X22267Y21025D2*
Y21484D1*
X22258Y21494D1*
X23312Y20188D2*
D15*
Y20411D1*
D14*
Y21281D1*
X23442Y21411D1*
X19413Y21079D2*
X19873D1*
X19880Y21087D1*
X20103Y13070D2*
X20526D1*
X20578Y13122D1*
X15190Y18045D2*
Y17739D1*
X15483Y17445D1*
X15795Y18027D2*
Y17757D1*
X15483Y17445D1*
X11877Y15611D2*
Y16317D1*
X11903Y16344D1*
X4720Y17537D2*
Y17973D1*
X4771Y18024D1*
X7796Y18449D2*
Y17575D1*
X8143Y17228D1*
X9600D1*
X9722Y17350D1*
Y16873D1*
X9728Y16867D1*
X23972Y11302D2*
X24469D1*
X24472Y11305D1*
X19940Y9940D2*
Y11655D1*
X19967Y11681D1*
X17940Y18631D2*
D15*
Y18399D1*
D14*
Y17990D1*
X18540Y17390D1*
X21292Y15435D2*
X20578D1*
X13094Y22845D2*
Y18069D1*
X13160Y18003D1*
Y17904D1*
X13094Y17838D1*
X18940Y8302D2*
X19324D1*
X19385Y8241D1*
X20513Y30628D2*
D17*
Y29113D1*
X20340Y28940D1*
X8296Y19919D2*
D14*
Y21335D1*
X8342Y21380D1*
X18196Y19675D2*
D15*
X18428D1*
D14*
X18753D1*
X19219Y20141D1*
X20764Y19185D2*
X20587D1*
X19606Y20166D1*
X19244D1*
X19219Y20141D1*
X28940Y9940D2*
Y10551D1*
X27614Y11877D1*
X26738D1*
X25328Y13286D1*
Y15130D1*
X24576Y15882D1*
X22571D1*
X21787Y16667D1*
X21411Y17042D1*
X21383D1*
X20698Y17727D1*
Y19118D1*
X20764Y19185D1*
X21787Y16667D2*
X13772D1*
X10952Y19486D1*
Y21118D1*
X9947Y22123D1*
X8628D1*
X8378Y21873D1*
Y21416D1*
X8342Y21380D1*
X7796Y19919D2*
Y21241D1*
X7678Y21359D1*
X18196Y19872D2*
D15*
X18428D1*
D14*
X18506D1*
X19199Y20565D1*
X19815D1*
X20183Y20934D1*
Y21915D1*
X19776Y22322D1*
X19457D1*
X19433Y22346D1*
X7678Y21359D2*
Y21915D1*
X7683Y21920D1*
X8296Y18449D2*
D17*
Y17717D1*
X8288Y17708D1*
X24188Y19312D2*
D15*
X24411D1*
D14*
X24924D1*
X24925Y19311D1*
X25774D1*
X25893Y19191D1*
Y18406D1*
X25882Y18394D1*
Y17905D1*
X25555Y17578D1*
Y13567D1*
X26084Y13038D1*
X27520Y26943D2*
Y26817D1*
X27999Y26337D1*
Y14252D1*
X28051Y14200D1*
X11555Y19966D2*
Y22203D1*
X12973Y23621D1*
Y23652D1*
X13750Y24429D1*
X17845D1*
X18008Y24592D1*
X13109Y11904D2*
Y8109D1*
X11940Y6940D1*
X22371Y17695D2*
D17*
Y18087D1*
X22447Y18163D1*
X20775Y20710D2*
X21187D1*
X21193Y20704D1*
X20764Y19854D2*
Y20700D1*
X20775Y20710D1*
X22692Y19056D2*
D15*
X22479D1*
D14*
X22343Y18920D1*
Y18266D1*
X22447Y18163D1*
X16700Y19872D2*
D15*
X16468D1*
D14*
X16383D1*
X16207Y20047D1*
Y22367D1*
X16618Y22778D1*
X20121D1*
X20775Y22124D1*
Y21380D1*
X22870Y17695D2*
D17*
Y18149D1*
X22860Y18159D1*
X18763Y22346D2*
Y22306D1*
X18484Y22585D1*
X17880D1*
X17505Y22210D1*
X17976D1*
X18010Y22244D1*
X23056Y18692D2*
D15*
Y18469D1*
D14*
Y18355D1*
X22860Y18159D1*
X16956Y20128D2*
D15*
Y20360D1*
D14*
Y22090D1*
X16835Y22210D1*
X24280Y33589D2*
D19*
X24285Y30642D1*
X28138D1*
X29369Y31873D1*
X11750Y30847D2*
D17*
X12379D1*
X12744Y30482D1*
X11750Y30847D2*
D16*
Y32576D1*
X11260Y33067D1*
X7046Y33217D2*
D19*
X11110D1*
X11260Y33067D1*
X27883Y5673D2*
X27294D1*
X26003Y6964D1*
X23111D1*
Y7623D1*
X23174Y7686D1*
D17*
X22189D1*
X22167Y7664D1*
Y5554D1*
X22309Y5411D1*
X7086Y10336D2*
D19*
Y8925D1*
X7150Y8861D1*
Y8629D1*
X5535Y7014D1*
X29369Y31873D2*
Y30561D1*
X30346Y29584D1*
Y25879D1*
X30096Y25629D1*
X29291D1*
X29180Y25739D1*
X26284Y25521D2*
D17*
X26510Y25748D1*
X26304Y21752D2*
Y20218D1*
X26357Y20166D1*
X23111Y6964D2*
D19*
X23049Y7027D1*
X22305D1*
Y5416D1*
X22309Y5411D1*
X26357Y20166D2*
D14*
Y20823D1*
X26234Y20945D1*
X26304Y21752D2*
Y21015D1*
X26234Y20945D1*
X26304Y21752D2*
Y22441D1*
X26187Y22557D1*
X26784Y23373D2*
Y23154D1*
X26187Y22557D1*
X17390Y15336D2*
X19356D1*
X19420Y15400D1*
X7687Y19184D2*
X6655D1*
X6634Y19163D1*
X24999Y22748D2*
X25513D1*
X26013Y23248D1*
Y23960D1*
X26080D1*
X24188Y19568D2*
D15*
X24411D1*
D14*
X24807D1*
X24915Y19676D1*
X24992Y22118D2*
Y22741D1*
X24999Y22748D1*
X23089Y23383D2*
X22557D1*
X22533Y23408D1*
X23824Y20188D2*
D15*
Y20411D1*
D14*
Y20557D1*
X23860Y20593D1*
Y20651D1*
X24362Y21153D1*
Y22552D1*
X23686Y23228D1*
X23244D1*
X23089Y23383D1*
X23568Y20188D2*
D15*
Y20910D1*
D14*
X23888Y21230D1*
Y22200D1*
X14792Y30956D2*
D18*
Y32369D1*
X15169Y32746D1*
X11002Y30847D2*
D14*
X10367D1*
X10364Y30850D1*
X13492Y30482D2*
Y30189D1*
X13212Y29909D1*
X13234D1*
X13262Y29937D1*
X23537Y30642D2*
Y31219D1*
X23496Y31260D1*
X23532Y33589D2*
Y32851D1*
X23504Y32823D1*
X27532Y23373D2*
Y23133D1*
X27022Y22622D1*
X27052Y21752D2*
Y22593D1*
X27022Y22622D1*
X27052Y21752D2*
Y20943D1*
X27059Y20936D1*
X27105Y20166D2*
Y20890D1*
X27059Y20936D1*
X23922Y7686D2*
X24438D1*
X24456Y7704D1*
X21419Y7664D2*
X20787D1*
X20754Y7631D1*
X7898Y8861D2*
Y9656D1*
X7925Y9683D1*
X7834Y10336D2*
Y9774D1*
X7925Y9683D1*
X22811Y12771D2*
Y12335D1*
X22513Y12037D1*
X21837D1*
X21537Y12337D1*
X15703D1*
X15503Y12538D1*
X10922D1*
X9820Y13639D1*
X8093D1*
X7942Y13789D1*
Y14350D1*
Y14351D1*
X21388Y13751D2*
Y13781D1*
X23234D1*
X23715Y13300D1*
Y12772D1*
X23716Y12771D1*
X16700Y19478D2*
D15*
X16468D1*
D14*
X16069D1*
X15744Y19803D1*
X15042D1*
X14997Y19848D1*
X13821D1*
X13777Y19804D1*
X16700Y19675D2*
D15*
X16468D1*
D14*
X16268D1*
X15998Y19945D1*
Y21061D1*
X15179Y21881D1*
X13794D1*
X13751Y21838D1*
Y22234D1*
X13777Y22260D1*
X13751Y21838D2*
Y21410D1*
X13819Y21343D1*
X21940Y9940D2*
D16*
Y11239D1*
X21985Y11284D1*
X16165Y6149D2*
Y8198D1*
X17079Y9111D1*
X21111D1*
X21940Y9940D1*
X17483Y13025D2*
D14*
X19389D1*
X19434Y13070D1*
X4510Y27225D2*
X5711D1*
X5735Y27200D1*
X4470Y25675D2*
X5741D1*
X5745Y25670D1*
X20513Y31298D2*
Y32488D1*
X20466Y32535D1*
X19385Y7571D2*
X19481D1*
X20321Y6732D1*
X22692Y19824D2*
D15*
X22469D1*
D14*
X22400D1*
X22285Y19938D1*
X22144D1*
X21965Y20117D1*
X8796Y19919D2*
Y20339D1*
X8931Y20474D1*
X9517D1*
X9799Y20756D1*
X24188Y19056D2*
D15*
X24411D1*
D14*
X24711D1*
X24787Y18981D1*
X25452D1*
X25495Y18938D1*
X23824Y18692D2*
D15*
Y18469D1*
D14*
Y18325D1*
X23995Y18154D1*
Y17785D1*
X24028Y17752D1*
X24188Y19824D2*
D15*
X24411D1*
D14*
X24568D1*
X24738Y19994D1*
X25427D1*
X25471Y19950D1*
X22692Y19312D2*
D15*
X22469D1*
D14*
X22286D1*
X22243Y19269D1*
X21994D1*
X21888Y19164D1*
X23312Y18692D2*
D15*
Y18469D1*
D14*
Y16462D1*
X23320Y16454D1*
X24622Y12771D2*
Y12357D1*
X24816Y12162D1*
Y11899D1*
X24900Y11815D1*
X21961Y15435D2*
Y14738D1*
X22580Y14120D1*
X23794D1*
X24600Y13314D1*
Y12792D1*
X24622Y12771D1*
X18196Y19281D2*
D17*
X19734D1*
Y19115D1*
X19689Y19160D1*
X19571D1*
X18196Y18887D2*
X18647D1*
X19144Y18391D1*
X19267D1*
Y18237D1*
X19198Y18306D1*
Y18336D1*
X19746Y18379D2*
D14*
X19189Y18936D1*
X18832D1*
X18692Y19076D1*
X18432D1*
D15*
Y19084D1*
X18196D1*
X15190Y18715D2*
D14*
Y18785D1*
X15686Y19281D1*
X16472D1*
D15*
X16700D1*
X18744Y21079D2*
D14*
X18212D1*
X17944Y20812D1*
D15*
Y20351D1*
X17940D1*
Y20128D1*
X15795Y18696D2*
D14*
X16184Y19084D1*
X16472D1*
D15*
X16700D1*
X20278Y18302D2*
D17*
X20254D1*
Y19192D1*
X19969Y19478D1*
X18196D1*
X16814Y13025D2*
D14*
X16084D1*
X12455Y16654D1*
X10680D1*
X10247Y16221D1*
X9339D1*
X8729Y15611D1*
X23940Y9940D2*
Y10474D1*
X23112Y11302D1*
X23303D1*
X22672D1*
X22654Y11284D1*
X16700Y18887D2*
D15*
X16527D1*
D14*
X16321Y18682D1*
Y18021D1*
X16451Y17891D1*
X20892Y26033D2*
Y26325D1*
X22363Y27796D1*
Y27811D1*
X22456Y27905D1*
X25905D1*
X26940Y28940D1*
X16451Y17891D2*
Y17498D1*
X15924Y16971D1*
X14915D1*
X13427Y18459D1*
Y23536D1*
X13762Y23871D1*
X20106D1*
X20849Y24614D1*
X20871Y24653D1*
X24940Y9940D2*
Y11106D1*
X24900Y11146D1*
X4510Y26555D2*
X8700D1*
X9501Y27357D1*
X10257Y26585D2*
Y26547D1*
X8689Y24979D1*
X7002D1*
X6659Y24636D1*
X6629D1*
X6356Y24363D1*
Y23885D1*
X5811Y23340D1*
Y16487D1*
X6387Y15912D1*
Y14370D1*
X6368Y14351D1*
X10257Y26585D2*
Y26561D1*
X19504D1*
X21321Y24743D1*
Y24273D1*
X21755Y23839D1*
X24430D1*
X25016Y24426D1*
Y25280D1*
X24537Y25759D1*
X24443D1*
X24531Y25847D1*
Y25776D1*
Y24776D2*
Y24710D1*
X24056Y24236D1*
X22130D1*
X19381Y26985D1*
X10054D1*
X8391Y25322D1*
X6981D1*
X6114Y24454D1*
Y24028D1*
X5538Y23453D1*
Y15653D1*
X5581Y15611D1*
X6981Y25322D2*
Y25340D1*
X6647Y25005D1*
X4470D1*
D16*
X17460Y11652D3*
X15383Y11680D3*
X16973Y17092D3*
X21999Y19578D3*
X19408Y11682D3*
X21387Y11696D3*
X9813Y11951D3*
X22447Y18163D3*
X22860Y18159D3*
X9841Y11498D3*
X22937Y21454D3*
X24938Y23893D3*
X20578Y13122D3*
Y15435D3*
X22581Y16591D3*
X15483Y17445D3*
X18540Y17390D3*
X18403Y23418D3*
X17328Y19208D3*
X18468Y18474D3*
X18775Y21540D3*
X18010Y22244D3*
X19199Y20565D3*
X19219Y20141D3*
X21193Y20704D3*
X7683Y21920D3*
X10129Y18024D3*
X14795Y19290D3*
X8288Y17708D3*
X11903Y16344D3*
X14740Y21163D3*
X21377Y18685D3*
X13793Y23408D3*
X13755Y18649D3*
X11555Y19966D3*
X18008Y24592D3*
X9784Y12574D3*
Y13029D3*
X13094Y22845D3*
Y17838D3*
X18940Y8302D3*
X19752Y17170D3*
X23442Y21411D3*
X22258Y21494D3*
X24323Y23284D3*
X4771Y18024D3*
X19880Y21087D3*
X9728Y16867D3*
X24472Y11305D3*
X7925Y9683D3*
X9501Y27357D3*
X10257Y26585D3*
X10300Y27263D3*
X21385Y12645D3*
X10296Y22748D3*
X20754Y7631D3*
X24456Y7704D3*
X27059Y20936D3*
X9492Y21398D3*
X6549Y21340D3*
X24925Y19311D3*
X20892Y26033D3*
X26084Y13038D3*
X24915Y19676D3*
X24992Y22118D3*
X23591Y17990D3*
X27520Y26943D3*
X13109Y11904D3*
X20871Y24653D3*
X26187Y22557D3*
X26234Y20945D3*
X27022Y22622D3*
X23504Y32823D3*
X23496Y31260D3*
X10364Y30850D3*
X13262Y29937D3*
X4380Y34231D2*
X16658D1*
X18305D2*
X22075D1*
X23308D2*
X30499D1*
X4380Y33933D2*
X6610D1*
X7478D2*
X16658D1*
X18305D2*
X19902D1*
X21032D2*
X22055D1*
X24859D2*
X27530D1*
X28431D2*
X30499D1*
X4380Y33634D2*
X6311D1*
X12506D2*
X16658D1*
X18305D2*
X19779D1*
X21155D2*
X22199D1*
X24859D2*
X27251D1*
X28709D2*
X30499D1*
X4380Y33335D2*
X6040D1*
X12834D2*
X13849D1*
X16492D2*
X16658D1*
X18305D2*
X19799D1*
X21131D2*
X22117D1*
X24859D2*
X27161D1*
X28800D2*
X30499D1*
X4380Y33037D2*
X6077D1*
X12896D2*
X13849D1*
X16492D2*
X16658D1*
X18305D2*
X19771D1*
X21164D2*
X22047D1*
X24859D2*
X27190D1*
X28771D2*
X30499D1*
X4380Y32738D2*
X6377D1*
X12797D2*
X13849D1*
X16492D2*
X16658D1*
X18305D2*
X19771D1*
X21164D2*
X22125D1*
X23259D2*
X23708D1*
X24854D2*
X27358D1*
X28603D2*
X29084D1*
X29653D2*
X30499D1*
X4380Y32439D2*
X5122D1*
X6191D2*
X6672D1*
X7417D2*
X11232D1*
X12223D2*
X13849D1*
X16492D2*
X16658D1*
X18305D2*
X19771D1*
X21164D2*
X22047D1*
X23337D2*
X23712D1*
X24854D2*
X28785D1*
X29952D2*
X30499D1*
X4380Y32140D2*
X4900D1*
X6416D2*
X11277D1*
X12223D2*
X13849D1*
X16492D2*
X16658D1*
X18305D2*
X19771D1*
X21164D2*
X22047D1*
X23337D2*
X23712D1*
X24854D2*
X28485D1*
X30251D2*
X30499D1*
X4380Y31842D2*
X4835D1*
X6478D2*
X11277D1*
X12223D2*
X16658D1*
X18305D2*
X20127D1*
X20901D2*
X22047D1*
X23337D2*
X23712D1*
X24854D2*
X28342D1*
X4380Y31543D2*
X4888D1*
X6424D2*
X11277D1*
X12223D2*
X19996D1*
X21032D2*
X22047D1*
X23337D2*
X23712D1*
X24854D2*
X28243D1*
X30190D2*
X30499D1*
X4380Y31244D2*
X5093D1*
X6223D2*
X10424D1*
X12330D2*
X14234D1*
X15352D2*
X19996D1*
X21032D2*
X23712D1*
X24854D2*
X27944D1*
X29940D2*
X30499D1*
X4380Y30946D2*
X10424D1*
X14069D2*
X14234D1*
X15352D2*
X19996D1*
X21032D2*
X22957D1*
X29940D2*
X30499D1*
X4380Y30647D2*
X10424D1*
X14069D2*
X14234D1*
X15352D2*
X19996D1*
X21032D2*
X22957D1*
X30079D2*
X30499D1*
X4380Y30348D2*
X10424D1*
X14069D2*
X14234D1*
X15352D2*
X19996D1*
X21032D2*
X22957D1*
X28640D2*
X28842D1*
X4380Y30050D2*
X9604D1*
X10275D2*
X12167D1*
X15352D2*
X20152D1*
X20876D2*
X29084D1*
X4380Y29751D2*
X9092D1*
X10788D2*
X13902D1*
X15352D2*
X20152D1*
X20876D2*
X29384D1*
X4380Y29452D2*
X8878D1*
X12715D2*
X12967D1*
X13712D2*
X13896D1*
X15713D2*
X15965D1*
X16714D2*
X16966D1*
X17715D2*
X17966D1*
X18715D2*
X18967D1*
X19712D2*
X19968D1*
X20876D2*
X21292D1*
X23312D2*
X23568D1*
X24313D2*
X24565D1*
X25314D2*
X25565D1*
X26314D2*
X26566D1*
X27315D2*
X27567D1*
X28312D2*
X28567D1*
X29312D2*
X29683D1*
X4380Y29154D2*
X8780D1*
X20950D2*
X21292D1*
X29550D2*
X29773D1*
X4380Y28855D2*
X4851D1*
X5395D2*
X5852D1*
X7770D2*
X8763D1*
X20979D2*
X21292D1*
X29583D2*
X29775D1*
X4380Y28556D2*
X4539D1*
X7770D2*
X8825D1*
X20852D2*
X21292D1*
X29452D2*
X29773D1*
X7770Y28258D2*
X8985D1*
X10899D2*
X22375D1*
X28759D2*
X29773D1*
X4380Y27959D2*
X4572D1*
X7770D2*
X8919D1*
X10571D2*
X21989D1*
X28459D2*
X29773D1*
X5030Y27660D2*
X5196D1*
X6941D2*
X8620D1*
X10525D2*
X21694D1*
X28160D2*
X29773D1*
X10759Y27361D2*
X21395D1*
X27861D2*
X29773D1*
X19839Y27063D2*
X21095D1*
X27975D2*
X28637D1*
X20134Y26764D2*
X20796D1*
X28107D2*
X28543D1*
X28361Y26465D2*
X28608D1*
X28385Y26167D2*
X28543D1*
X28385Y25868D2*
X28543D1*
X28385Y25569D2*
X28543D1*
X28385Y25271D2*
X28543D1*
X28385Y24972D2*
X30499D1*
X28385Y24673D2*
X30499D1*
X28385Y24375D2*
X30499D1*
X28385Y24076D2*
X29724D1*
X30157D2*
X30499D1*
X28385Y23777D2*
X29121D1*
X28385Y23479D2*
X28891D1*
X28385Y23180D2*
X28785D1*
X28385Y22881D2*
X28760D1*
X28385Y22582D2*
X28818D1*
X28385Y22284D2*
X28965D1*
X28385Y21985D2*
X29269D1*
X28385Y21686D2*
X30499D1*
X26265Y19297D2*
X27612D1*
X26282Y18998D2*
X27612D1*
X26282Y18700D2*
X27612D1*
X26282Y18401D2*
X27612D1*
X28385D2*
X28633D1*
X29357D2*
X29634D1*
X26269Y18102D2*
X27612D1*
X28385D2*
X30499D1*
X26253Y17803D2*
X27612D1*
X28385D2*
X30499D1*
X26015Y17505D2*
X26222D1*
X26819D2*
X27612D1*
X28385D2*
X28785D1*
X29423D2*
X30499D1*
X27106Y17206D2*
X27612D1*
X29694D2*
X30499D1*
X27155Y16907D2*
X27612D1*
X29739D2*
X30499D1*
X27044Y16609D2*
X27612D1*
X28385D2*
X28588D1*
X29620D2*
X30499D1*
X27159Y16310D2*
X27612D1*
X29739D2*
X30499D1*
X27159Y16011D2*
X27612D1*
X29739D2*
X30499D1*
X27159Y15713D2*
X27612D1*
X29739D2*
X30499D1*
X27159Y15414D2*
X27612D1*
X29739D2*
X30499D1*
X25941Y15115D2*
X27612D1*
X28385D2*
X30499D1*
X25941Y14817D2*
X27403D1*
X28697D2*
X30499D1*
X25941Y14518D2*
X27403D1*
X25941Y14219D2*
X27403D1*
X25941Y13921D2*
X27403D1*
X26036Y13622D2*
X27403D1*
X29296D2*
X29806D1*
X30297D2*
X30499D1*
X26450Y13323D2*
X30499D1*
X26556Y13024D2*
X29523D1*
X26425Y12726D2*
X29068D1*
X10230Y12427D2*
X10498D1*
X26720D2*
X28867D1*
X10247Y12128D2*
X12700D1*
X13519D2*
X15378D1*
X27897D2*
X28773D1*
X10267Y11830D2*
X12643D1*
X13577D2*
X14936D1*
X28197D2*
X28764D1*
X10312Y11531D2*
X12721D1*
X13495D2*
X14936D1*
X28496D2*
X28834D1*
X4380Y11232D2*
X9452D1*
X10222D2*
X12721D1*
X13495D2*
X15399D1*
X28791D2*
X29002D1*
X4380Y10934D2*
X8829D1*
X10050D2*
X12721D1*
X13495D2*
X19553D1*
X29091D2*
X29351D1*
X4380Y10635D2*
X6508D1*
X10386D2*
X12721D1*
X13495D2*
X19553D1*
X22410D2*
X23244D1*
X29316D2*
X30499D1*
X4380Y10336D2*
X6508D1*
X10550D2*
X12721D1*
X13495D2*
X14292D1*
X22443D2*
X23294D1*
X29444D2*
X30499D1*
X4380Y10038D2*
X6508D1*
X10616D2*
X12721D1*
X13495D2*
X14292D1*
X22578D2*
X23294D1*
X29579D2*
X30499D1*
X4380Y9739D2*
X6516D1*
X10603D2*
X12721D1*
X13495D2*
X14292D1*
X22554D2*
X23294D1*
X29554D2*
X30499D1*
X4380Y9440D2*
X6516D1*
X10509D2*
X12721D1*
X13495D2*
X14292D1*
X16333D2*
X16547D1*
X22332D2*
X23294D1*
X25330D2*
X25549D1*
X26331D2*
X26550D1*
X27332D2*
X27550D1*
X28332D2*
X28547D1*
X29333D2*
X30499D1*
X4380Y9142D2*
X6516D1*
X10300D2*
X10802D1*
X13495D2*
X16453D1*
X21795D2*
X30499D1*
X4380Y8843D2*
X6520D1*
X8475D2*
X9063D1*
X9820D2*
X10802D1*
X13495D2*
X16154D1*
X21496D2*
X30499D1*
X4380Y8544D2*
X6270D1*
X8475D2*
X10802D1*
X13495D2*
X15858D1*
X17165D2*
X18540D1*
X19905D2*
X30499D1*
X4380Y8245D2*
X5971D1*
X7564D2*
X10802D1*
X13495D2*
X15694D1*
X16870D2*
X18471D1*
X19905D2*
X20841D1*
X24498D2*
X30499D1*
X4380Y7947D2*
X5319D1*
X7265D2*
X12413D1*
X13458D2*
X15694D1*
X16636D2*
X18647D1*
X19905D2*
X20841D1*
X24498D2*
X30499D1*
X4380Y7648D2*
X5019D1*
X6966D2*
X12114D1*
X13183D2*
X15694D1*
X16636D2*
X18868D1*
X19937D2*
X20841D1*
X24498D2*
X28711D1*
X29833D2*
X30499D1*
X4380Y7349D2*
X4720D1*
X6666D2*
X11294D1*
X12884D2*
X15694D1*
X16636D2*
X18868D1*
X26413D2*
X28506D1*
X30038D2*
X30499D1*
X6564Y7051D2*
X11294D1*
X12588D2*
X15694D1*
X16636D2*
X19467D1*
X21016D2*
X21735D1*
X26712D2*
X28449D1*
X30096D2*
X30499D1*
X4380Y6752D2*
X4646D1*
X6424D2*
X11294D1*
X12588D2*
X14517D1*
X16636D2*
X17007D1*
X17325D2*
X19623D1*
X21016D2*
X21735D1*
X27012D2*
X28514D1*
X30030D2*
X30499D1*
X4380Y6453D2*
X4945D1*
X6125D2*
X11294D1*
X12588D2*
X14517D1*
X17731D2*
X19623D1*
X21016D2*
X21735D1*
X27311D2*
X27513D1*
X28254D2*
X28736D1*
X29809D2*
X30499D1*
X4380Y6155D2*
X5245D1*
X5826D2*
X6307D1*
X7544D2*
X11331D1*
X12547D2*
X14517D1*
X17813D2*
X19623D1*
X21016D2*
X21735D1*
X22878D2*
X26017D1*
X28554D2*
X30499D1*
X4380Y5856D2*
X6135D1*
X7712D2*
X11298D1*
X12580D2*
X14517D1*
X17739D2*
X19635D1*
X21008D2*
X21674D1*
X23751D2*
X26316D1*
X28849D2*
X30499D1*
X4380Y5557D2*
X6106D1*
X7745D2*
X11425D1*
X12453D2*
X14517D1*
X16369D2*
X16961D1*
X17370D2*
X19648D1*
X20995D2*
X21674D1*
X23928D2*
X26615D1*
X28890D2*
X30499D1*
X4380Y5259D2*
X6192D1*
X7655D2*
X11380D1*
X12498D2*
X19820D1*
X20819D2*
X21674D1*
X23928D2*
X26915D1*
X28619D2*
X30499D1*
X4380Y4960D2*
X6463D1*
X7384D2*
X11294D1*
X12588D2*
X21674D1*
X23747D2*
X27448D1*
X28320D2*
X30499D1*
X4380Y4661D2*
X11359D1*
X12519D2*
X30499D1*
X4380Y4363D2*
X11692D1*
X12186D2*
X30499D1*
X21750Y8251D2*
X22624D1*
X22626Y8273D1*
X23722Y8269D1*
X23741Y8273D1*
X24470D1*
Y7506D1*
X26003D1*
X26133Y7491D1*
X26255Y7444D1*
X26386Y7348D1*
X27410Y6324D1*
X27677Y6587D1*
X27787Y6656D1*
X27916Y6670D1*
X28042Y6624D1*
X28183Y6494D1*
X28797Y5880D1*
X28866Y5770D1*
X28881Y5640D1*
X28834Y5515D1*
X28704Y5374D1*
X28090Y4760D1*
X27980Y4690D1*
X27850Y4676D1*
X27725Y4722D1*
X27584Y4852D1*
X27303Y5134D1*
X27164Y5147D1*
X27042Y5194D1*
X26911Y5290D1*
X25777Y6424D1*
X23111Y6422D1*
X22983Y6438D1*
X22871Y6479D1*
X22914Y6460D1*
X22847Y6370D1*
Y6022D1*
X22916Y6018D1*
X22923Y5879D1*
X23032Y5951D1*
X23154Y5998D1*
X23284Y6018D1*
X23415Y6009D1*
X23540Y5973D1*
X23655Y5910D1*
X23754Y5824D1*
X23833Y5719D1*
X23886Y5600D1*
X23913Y5471D1*
X23911Y5333D1*
X23880Y5205D1*
X23823Y5088D1*
X23742Y4985D1*
X23640Y4902D1*
X23523Y4843D1*
X23396Y4810D1*
X23266Y4806D1*
X23137Y4829D1*
X23016Y4880D1*
X22917Y4948D1*
X22916Y4804D1*
X21702D1*
Y6018D1*
X21764D1*
X21763Y7031D1*
X21757Y7077D1*
X20987D1*
X20988Y6065D1*
X20901D1*
X20940Y5980D1*
X20976Y5854D1*
X20988Y5732D1*
X20975Y5601D1*
X20937Y5476D1*
X20875Y5361D1*
X20791Y5259D1*
X20690Y5176D1*
X20574Y5115D1*
X20449Y5077D1*
X20318Y5065D1*
X20188Y5078D1*
X20063Y5117D1*
X19948Y5179D1*
X19847Y5262D1*
X19764Y5364D1*
X19703Y5480D1*
X19666Y5606D1*
X19654Y5736D1*
X19667Y5866D1*
X19706Y5992D1*
X19747Y6067D1*
X19654Y6065D1*
Y6897D1*
X19480Y7063D1*
X18896D1*
Y7862D1*
X18848Y7870D1*
X18726Y7916D1*
X18622Y7995D1*
X18546Y8102D1*
X18505Y8226D1*
X18502Y8357D1*
X18537Y8483D1*
X18608Y8593D1*
X18698Y8670D1*
X17260Y8669D1*
X16605Y8013D1*
X16607Y6578D1*
X16662Y6509D1*
X16782Y6632D1*
X16892Y6702D1*
X17015Y6747D1*
X17145Y6766D1*
X17275Y6756D1*
X17401Y6719D1*
X17516Y6656D1*
X17615Y6571D1*
X17694Y6466D1*
X17749Y6347D1*
X17778Y6220D1*
X17782Y6149D1*
X17768Y6019D1*
X17727Y5894D1*
X17661Y5781D1*
X17572Y5685D1*
X17465Y5610D1*
X17344Y5558D1*
X17216Y5534D1*
X17085Y5537D1*
X16957Y5568D1*
X16839Y5625D1*
X16736Y5705D1*
X16665Y5790D1*
X16572Y5685D1*
X16465Y5610D1*
X16344Y5558D1*
X16216Y5534D1*
X16085Y5537D1*
X15957Y5568D1*
X15839Y5625D1*
X15785Y5668D1*
X15782Y5532D1*
X14548D1*
Y6766D1*
X15725D1*
X15723Y8198D1*
X15743Y8327D1*
X15804Y8452D1*
X15945Y8603D1*
X16710Y9367D1*
X16614Y9416D1*
X16511Y9497D1*
X16440Y9581D1*
X16347Y9476D1*
X16240Y9401D1*
X16119Y9350D1*
X15990Y9325D1*
X15860Y9328D1*
X15732Y9359D1*
X15614Y9416D1*
X15559Y9459D1*
X15557Y9323D1*
X14323D1*
Y10557D1*
X15557D1*
Y10422D1*
X15667Y10493D1*
X15790Y10538D1*
X15920Y10557D1*
X16050Y10547D1*
X16176Y10510D1*
X16291Y10447D1*
X16390Y10362D1*
X16437Y10300D1*
X16556Y10423D1*
X16667Y10493D1*
X16790Y10538D1*
X16920Y10557D1*
X17050Y10547D1*
X17176Y10510D1*
X17291Y10447D1*
X17390Y10362D1*
X17437Y10300D1*
X17556Y10423D1*
X17667Y10493D1*
X17790Y10538D1*
X17920Y10557D1*
X18050Y10547D1*
X18176Y10510D1*
X18291Y10447D1*
X18390Y10362D1*
X18437Y10300D1*
X18556Y10423D1*
X18667Y10493D1*
X18790Y10538D1*
X18920Y10557D1*
X19050Y10547D1*
X19176Y10510D1*
X19291Y10447D1*
X19390Y10362D1*
X19437Y10300D1*
X19556Y10423D1*
X19580Y10439D1*
X19583Y11191D1*
X19458Y11192D1*
Y11246D1*
X19344Y11248D1*
X19345Y11191D1*
X18328Y11195D1*
X17888Y11191D1*
X17658D1*
Y11260D1*
X17625Y11242D1*
X17498Y11212D1*
X17368Y11220D1*
X17272Y11256D1*
X17273Y11101D1*
X16177Y11105D1*
X15737Y11101D1*
X15429D1*
Y11244D1*
X15290Y11248D1*
X15168Y11294D1*
X15064Y11374D1*
X14989Y11480D1*
X14947Y11604D1*
X14944Y11735D1*
X14979Y11861D1*
X15050Y11971D1*
X15150Y12056D1*
X15270Y12107D1*
X15420Y12118D1*
X15355Y12181D1*
X13457D1*
X13525Y12054D1*
X13551Y11904D1*
X13532Y11775D1*
X13466Y11642D1*
Y8109D1*
X13443Y7981D1*
X13362Y7857D1*
X12559Y7054D1*
X12557Y6323D1*
X12422D1*
X12469Y6257D1*
X12524Y6139D1*
X12553Y6011D1*
X12557Y5940D1*
X12543Y5810D1*
X12502Y5685D1*
X12436Y5572D1*
X12347Y5476D1*
X12297Y5441D1*
X12372Y5381D1*
X12455Y5280D1*
X12515Y5163D1*
X12549Y5037D1*
X12556Y4914D1*
X12537Y4784D1*
X12491Y4662D1*
X12420Y4552D1*
X12327Y4459D1*
X12217Y4388D1*
X12120Y4350D1*
X30533D1*
X30530Y6037D1*
Y10954D1*
X30421Y10894D1*
X30299Y10846D1*
X30172Y10812D1*
X30042Y10793D1*
X29911Y10789D1*
X29780Y10800D1*
X29652Y10825D1*
X29527Y10865D1*
X29407Y10919D1*
X29295Y10987D1*
X29190Y11066D1*
X29096Y11157D1*
X29012Y11258D1*
X28941Y11368D1*
X28882Y11485D1*
X28837Y11609D1*
X28807Y11736D1*
X28791Y11866D1*
X28790Y11998D1*
X28804Y12128D1*
X28833Y12256D1*
X28876Y12380D1*
X28933Y12498D1*
X29003Y12609D1*
X29085Y12711D1*
X29178Y12803D1*
X29281Y12884D1*
X29393Y12953D1*
X29512Y13009D1*
X29636Y13051D1*
X29765Y13078D1*
X29895Y13090D1*
X30026Y13088D1*
X30156Y13071D1*
X30284Y13039D1*
X30406Y12993D1*
X30533Y12926D1*
X30530Y13809D1*
X30438Y13719D1*
X30328Y13648D1*
X30205Y13602D1*
X30076Y13583D1*
X29945Y13592D1*
X29819Y13628D1*
X29704Y13690D1*
X29604Y13775D1*
X29551Y13839D1*
X29458Y13736D1*
X29351Y13660D1*
X29231Y13609D1*
X29102Y13585D1*
X28971Y13588D1*
X28844Y13619D1*
X28726Y13676D1*
X28671Y13719D1*
X28668Y13583D1*
X27434D1*
Y14817D1*
X27644D1*
X27642Y19579D1*
X26006Y19578D1*
X26146Y19444D1*
X26212Y19353D1*
X26243Y19263D1*
X26250Y19060D1*
Y18402D1*
X26239Y18263D1*
Y17905D1*
X26215Y17777D1*
X26134Y17653D1*
X25911Y17429D1*
X25912Y13711D1*
X26152Y13475D1*
X26229Y13455D1*
X26345Y13395D1*
X26438Y13303D1*
X26500Y13188D1*
X26526Y13038D1*
X26507Y12909D1*
X26450Y12791D1*
X26392Y12728D1*
X26889Y12231D1*
X27614Y12234D1*
X27743Y12210D1*
X27867Y12129D1*
X29192Y10803D1*
X29266Y10696D1*
X29297Y10551D1*
Y10440D1*
X29390Y10362D1*
X29469Y10257D1*
X29524Y10139D1*
X29553Y10011D1*
X29557Y9940D1*
X29543Y9810D1*
X29502Y9685D1*
X29436Y9572D1*
X29347Y9476D1*
X29240Y9401D1*
X29119Y9350D1*
X28990Y9325D1*
X28860Y9328D1*
X28732Y9359D1*
X28614Y9416D1*
X28511Y9497D1*
X28440Y9581D1*
X28347Y9476D1*
X28240Y9401D1*
X28119Y9350D1*
X27990Y9325D1*
X27860Y9328D1*
X27732Y9359D1*
X27614Y9416D1*
X27511Y9497D1*
X27440Y9581D1*
X27347Y9476D1*
X27240Y9401D1*
X27119Y9350D1*
X26990Y9325D1*
X26860Y9328D1*
X26732Y9359D1*
X26614Y9416D1*
X26511Y9497D1*
X26440Y9581D1*
X26347Y9476D1*
X26240Y9401D1*
X26119Y9350D1*
X25990Y9325D1*
X25860Y9328D1*
X25732Y9359D1*
X25614Y9416D1*
X25511Y9497D1*
X25440Y9581D1*
X25347Y9476D1*
X25240Y9401D1*
X25119Y9350D1*
X24990Y9325D1*
X24860Y9328D1*
X24732Y9359D1*
X24614Y9416D1*
X24559Y9459D1*
X24557Y9323D1*
X23323D1*
Y10557D1*
X23352D1*
X23116Y10793D1*
X22379Y10795D1*
X22382Y10374D1*
X22469Y10257D1*
X22524Y10139D1*
X22553Y10011D1*
X22557Y9940D1*
X22543Y9810D1*
X22502Y9685D1*
X22436Y9572D1*
X22347Y9476D1*
X22240Y9401D1*
X22119Y9350D1*
X21954Y9326D1*
X21424Y8798D1*
X21318Y8721D1*
X21187Y8676D1*
X20980Y8669D1*
X19877D1*
X19874Y7732D1*
Y7682D1*
X20160Y7397D1*
X20872Y7399D1*
X20871Y8251D1*
X21967Y8250D1*
X7698Y8278D2*
X7563Y8274D1*
X6475Y7187D1*
X6490Y7168D1*
X6533Y7046D1*
X6518Y6916D1*
X6449Y6807D1*
X5742Y6100D1*
X5632Y6031D1*
X5502Y6017D1*
X5377Y6063D1*
X5236Y6193D1*
X4622Y6807D1*
X4553Y6917D1*
X4538Y7047D1*
X4584Y7172D1*
X4715Y7313D1*
X5329Y7927D1*
X5439Y7997D1*
X5568Y8011D1*
X5694Y7965D1*
X5636Y7994D1*
X5802Y8047D1*
X6558Y8803D1*
X6544Y8925D1*
X6538Y9749D1*
Y10923D1*
X7634Y10919D1*
X7654Y10923D1*
X8382D1*
Y10394D1*
X8433Y10498D1*
X8503Y10609D1*
X8585Y10711D1*
X8678Y10803D1*
X8781Y10884D1*
X8893Y10953D1*
X9012Y11009D1*
X9136Y11051D1*
X9265Y11078D1*
X9395Y11090D1*
X9526Y11088D1*
X9656Y11071D1*
X9784Y11039D1*
X9906Y10993D1*
X10023Y10933D1*
X10132Y10860D1*
X10232Y10775D1*
X10322Y10680D1*
X10401Y10575D1*
X10467Y10461D1*
X10519Y10341D1*
X10558Y10216D1*
X10582Y10087D1*
X10591Y9940D1*
X10584Y9809D1*
X10562Y9680D1*
X10525Y9554D1*
X10474Y9433D1*
X10409Y9319D1*
X10332Y9213D1*
X10244Y9116D1*
X10145Y9030D1*
X10037Y8955D1*
X9921Y8894D1*
X9799Y8846D1*
X9672Y8812D1*
X9542Y8793D1*
X9411Y8789D1*
X9280Y8800D1*
X9152Y8825D1*
X9027Y8865D1*
X8907Y8919D1*
X8795Y8987D1*
X8690Y9066D1*
X8596Y9157D1*
X8512Y9258D1*
X8448Y9358D1*
X8446Y8274D1*
X7559D1*
X10963Y9359D2*
X12045D1*
X12052Y9220D1*
X12161Y9292D1*
X12283Y9339D1*
X12413Y9359D1*
X12543Y9350D1*
X12669Y9314D1*
X12753Y9271D1*
X12752Y11640D1*
X12715Y11704D1*
X12674Y11829D1*
X12671Y11959D1*
X12706Y12085D1*
X12766Y12178D1*
X11697Y12181D1*
X10922D1*
X10793Y12204D1*
X10669Y12285D1*
X10173Y12781D1*
X10200Y12724D1*
X10226Y12574D1*
X10206Y12445D1*
X10147Y12324D1*
X10119Y12287D1*
X10229Y12100D1*
X10255Y11951D1*
X10223Y11787D1*
X10231Y11706D1*
X10275Y11583D1*
X10281Y11452D1*
X10248Y11325D1*
X10179Y11214D1*
X10081Y11127D1*
X9962Y11073D1*
X9833Y11056D1*
X9704Y11078D1*
X9587Y11137D1*
X9436Y11279D1*
X9320Y11392D1*
X8939D1*
X8938Y11286D1*
X7734Y11282D1*
X6954D1*
Y11450D1*
X6345Y11448D1*
X6217Y11355D1*
X6096Y11306D1*
X5967Y11284D1*
X5836Y11291D1*
X5709Y11325D1*
X5593Y11386D1*
X5540Y11431D1*
X5539Y11283D1*
X4350D1*
Y4353D1*
X6169Y4350D1*
X11757Y4351D1*
X11637Y4403D1*
X11530Y4479D1*
X11442Y4576D1*
X11376Y4689D1*
X11336Y4814D1*
X11323Y4944D1*
X11338Y5074D1*
X11380Y5198D1*
X11447Y5311D1*
X11536Y5406D1*
X11579Y5440D1*
X11511Y5497D1*
X11427Y5597D1*
X11366Y5713D1*
X11331Y5839D1*
X11324Y5970D1*
X11344Y6100D1*
X11391Y6222D1*
X11456Y6321D1*
X11323Y6323D1*
Y7557D1*
X12059Y7564D1*
X12700Y8205D1*
X12577Y8162D1*
X12447Y8146D1*
X12316Y8158D1*
X12192Y8198D1*
X12078Y8264D1*
X12046Y8290D1*
X12045Y8146D1*
X10831D1*
Y9359D1*
X10963D1*
X24826Y31230D2*
X24833D1*
Y31184D1*
X27914D1*
X28431Y31701D1*
X28414Y31718D1*
X28372Y31841D1*
X28387Y31970D1*
X28456Y32079D1*
X29163Y32786D1*
X29273Y32856D1*
X29402Y32870D1*
X29528Y32824D1*
X29668Y32694D1*
X30283Y32079D1*
X30352Y31969D1*
X30366Y31840D1*
X30320Y31714D1*
X30190Y31574D1*
X29909Y31292D1*
X29911Y30786D1*
X30532Y30165D1*
X30530Y31365D1*
Y34527D1*
X28711Y34530D1*
X23073D1*
X23176Y34426D1*
X23246Y34315D1*
X23291Y34192D1*
X23299Y34177D1*
X24828D1*
X24824Y32540D1*
X24826Y31232D1*
X24833Y30098D2*
Y30055D1*
X23737Y30059D1*
X23717Y30055D1*
X22989D1*
Y31230D1*
X23741D1*
X23739Y33002D1*
X23306D1*
X23295Y32913D1*
X23254Y32789D1*
X23173Y32661D1*
X23309Y32660D1*
Y31426D1*
X22075D1*
Y32660D1*
X22210D1*
X22179Y32701D1*
X22118Y32817D1*
X22083Y32943D1*
X22075Y33074D1*
X22096Y33203D1*
X22143Y33325D1*
X22215Y33435D1*
X22332Y33542D1*
X22244Y33619D1*
X22165Y33723D1*
X22109Y33841D1*
X22079Y33969D1*
X22077Y34100D1*
X22103Y34228D1*
X22155Y34348D1*
X22232Y34455D1*
X22313Y34530D1*
X4347D1*
X4350Y32843D1*
Y27737D1*
X4854Y27733D1*
X4755Y27793D1*
X4659Y27882D1*
X4584Y27989D1*
X4533Y28110D1*
X4509Y28239D1*
X4512Y28370D1*
X4544Y28497D1*
X4601Y28615D1*
X4682Y28718D1*
X4783Y28801D1*
X4899Y28862D1*
X5025Y28896D1*
X5156Y28903D1*
X5285Y28883D1*
X5407Y28835D1*
X5517Y28763D1*
X5608Y28669D1*
X5624Y28649D1*
X5740Y28770D1*
X5851Y28840D1*
X5974Y28886D1*
X6104Y28904D1*
X6234Y28894D1*
X6360Y28857D1*
X6475Y28795D1*
X6509Y28765D1*
X6507Y28904D1*
X7741D1*
Y27670D1*
X6917D1*
X7033Y27585D1*
X8579D1*
X8972Y27981D1*
X9083Y28056D1*
X9032Y28030D1*
X9155Y28079D1*
X9012Y28258D1*
X8941Y28368D1*
X8882Y28485D1*
X8837Y28609D1*
X8807Y28736D1*
X8791Y28866D1*
X8790Y28998D1*
X8804Y29128D1*
X8833Y29256D1*
X8876Y29380D1*
X8933Y29498D1*
X9003Y29609D1*
X9085Y29711D1*
X9178Y29803D1*
X9281Y29884D1*
X9393Y29953D1*
X9512Y30009D1*
X9636Y30051D1*
X9765Y30078D1*
X9895Y30090D1*
X10026Y30088D1*
X10156Y30071D1*
X10284Y30039D1*
X10406Y29993D1*
X10523Y29933D1*
X10632Y29860D1*
X10732Y29775D1*
X10822Y29680D1*
X10911Y29557D1*
X11957D1*
Y29422D1*
X12067Y29493D1*
X12190Y29538D1*
X12320Y29557D1*
X12450Y29547D1*
X12576Y29510D1*
X12691Y29447D1*
X12790Y29362D1*
X12837Y29300D1*
X12956Y29423D1*
X13067Y29493D1*
X13190Y29538D1*
X13320Y29557D1*
X13450Y29547D1*
X13576Y29510D1*
X13691Y29447D1*
X13790Y29362D1*
X13837Y29300D1*
X13930Y29397D1*
X13928Y29682D1*
X13961Y29895D1*
X12196D1*
Y30260D1*
X11202Y30264D1*
X11183Y30260D1*
X10454D1*
Y31434D1*
X11308D1*
Y32393D1*
X11244Y32458D1*
X10653Y32460D1*
Y32677D1*
X8485Y32675D1*
X7620D1*
X7252Y32303D1*
X7142Y32234D1*
X7013Y32220D1*
X6887Y32266D1*
X6746Y32396D1*
X6132Y33011D1*
X6063Y33121D1*
X6048Y33250D1*
X6094Y33376D1*
X6225Y33516D1*
X6839Y34131D1*
X6949Y34200D1*
X7079Y34214D1*
X7204Y34168D1*
X7345Y34038D1*
X7626Y33757D1*
X9539Y33759D1*
X11110D1*
X11240Y33743D1*
X11396Y33677D1*
X11867Y33674D1*
X11873Y33535D1*
X11982Y33607D1*
X12105Y33654D1*
X12234Y33673D1*
X12365Y33665D1*
X12490Y33628D1*
X12606Y33566D1*
X12704Y33480D1*
X12783Y33375D1*
X12837Y33255D1*
X12864Y33127D1*
X12861Y32989D1*
X12831Y32861D1*
X12773Y32744D1*
X12692Y32641D1*
X12590Y32558D1*
X12473Y32499D1*
X12347Y32466D1*
X12216Y32462D1*
X12192Y32464D1*
Y31432D1*
X12298Y31434D1*
Y31176D1*
X12379Y31179D1*
X12507Y31153D1*
X12614Y31082D1*
X12628Y31067D1*
X13292Y31070D1*
X14040D1*
Y29993D1*
X14267Y30224D1*
X14264Y30658D1*
Y31445D1*
X15320D1*
Y29680D1*
X15111D1*
X14911Y29476D1*
X14912Y29382D1*
X14956Y29423D1*
X15067Y29493D1*
X15190Y29538D1*
X15320Y29557D1*
X15450Y29547D1*
X15576Y29510D1*
X15691Y29447D1*
X15790Y29362D1*
X15837Y29300D1*
X15956Y29423D1*
X16067Y29493D1*
X16190Y29538D1*
X16320Y29557D1*
X16450Y29547D1*
X16576Y29510D1*
X16691Y29447D1*
X16790Y29362D1*
X16837Y29300D1*
X16956Y29423D1*
X17067Y29493D1*
X17190Y29538D1*
X17320Y29557D1*
X17450Y29547D1*
X17576Y29510D1*
X17691Y29447D1*
X17790Y29362D1*
X17837Y29300D1*
X17956Y29423D1*
X18067Y29493D1*
X18190Y29538D1*
X18320Y29557D1*
X18450Y29547D1*
X18576Y29510D1*
X18691Y29447D1*
X18790Y29362D1*
X18837Y29300D1*
X18956Y29423D1*
X19067Y29493D1*
X19190Y29538D1*
X19320Y29557D1*
X19450Y29547D1*
X19576Y29510D1*
X19691Y29447D1*
X19790Y29362D1*
X19837Y29300D1*
X19956Y29423D1*
X20067Y29493D1*
X20178Y29534D1*
X20181Y30118D1*
X20024Y30120D1*
X20028Y31137D1*
X20024Y31577D1*
Y31806D1*
X20160D1*
X20156Y31868D1*
X19799D1*
Y33202D1*
X19886D1*
X19849Y33283D1*
X19812Y33409D1*
X19800Y33539D1*
X19813Y33669D1*
X19852Y33795D1*
X19915Y33910D1*
X19999Y34010D1*
X20101Y34093D1*
X20217Y34153D1*
X20342Y34190D1*
X20473Y34202D1*
X20603Y34188D1*
X20728Y34148D1*
X20843Y34085D1*
X20943Y34001D1*
X21025Y33899D1*
X21086Y33783D1*
X21122Y33657D1*
X21133Y33535D1*
X21121Y33404D1*
X21083Y33279D1*
X21042Y33203D1*
X21133Y33202D1*
Y31868D1*
X20867D1*
X20870Y31803D1*
X21002Y31806D1*
X20998Y30789D1*
X21002Y30349D1*
Y30120D1*
X20842D1*
X20845Y29447D1*
Y29296D1*
X20924Y29139D1*
X20953Y29011D1*
X20957Y28940D1*
X20943Y28810D1*
X20902Y28685D1*
X20836Y28572D1*
X20747Y28476D1*
X20640Y28401D1*
X20519Y28350D1*
X20390Y28325D1*
X20260Y28328D1*
X20132Y28359D1*
X20014Y28416D1*
X19911Y28497D1*
X19840Y28581D1*
X19747Y28476D1*
X19640Y28401D1*
X19519Y28350D1*
X19390Y28325D1*
X19260Y28328D1*
X19132Y28359D1*
X19014Y28416D1*
X18911Y28497D1*
X18840Y28581D1*
X18747Y28476D1*
X18640Y28401D1*
X18519Y28350D1*
X18390Y28325D1*
X18260Y28328D1*
X18132Y28359D1*
X18014Y28416D1*
X17911Y28497D1*
X17840Y28581D1*
X17747Y28476D1*
X17640Y28401D1*
X17519Y28350D1*
X17390Y28325D1*
X17260Y28328D1*
X17132Y28359D1*
X17014Y28416D1*
X16911Y28497D1*
X16840Y28581D1*
X16747Y28476D1*
X16640Y28401D1*
X16519Y28350D1*
X16390Y28325D1*
X16260Y28328D1*
X16132Y28359D1*
X16014Y28416D1*
X15911Y28497D1*
X15840Y28581D1*
X15747Y28476D1*
X15640Y28401D1*
X15519Y28350D1*
X15390Y28325D1*
X15260Y28328D1*
X15132Y28359D1*
X15014Y28416D1*
X14911Y28497D1*
X14840Y28581D1*
X14747Y28476D1*
X14640Y28401D1*
X14519Y28350D1*
X14390Y28325D1*
X14260Y28328D1*
X14132Y28359D1*
X14014Y28416D1*
X13911Y28497D1*
X13840Y28581D1*
X13747Y28476D1*
X13640Y28401D1*
X13519Y28350D1*
X13390Y28325D1*
X13260Y28328D1*
X13132Y28359D1*
X13014Y28416D1*
X12911Y28497D1*
X12840Y28581D1*
X12747Y28476D1*
X12640Y28401D1*
X12519Y28350D1*
X12390Y28325D1*
X12260Y28328D1*
X12132Y28359D1*
X12014Y28416D1*
X11959Y28459D1*
X11957Y28323D1*
X10909Y28319D1*
X10832Y28213D1*
X10744Y28116D1*
X10645Y28030D1*
X10537Y27955D1*
X10421Y27894D1*
X10239Y27830D1*
X10368Y27700D1*
X10446Y27681D1*
X10561Y27620D1*
X10654Y27528D1*
X10716Y27413D1*
X10730Y27345D1*
X12548Y27342D1*
X19381D1*
X19509Y27318D1*
X19633Y27237D1*
X20535Y26335D1*
X20543Y26402D1*
X20594Y26522D1*
X20732Y26670D1*
X22068Y28013D1*
X22204Y28157D1*
X22273Y28211D1*
X22353Y28246D1*
X22456Y28262D1*
X25758D1*
X25732Y28359D1*
X25614Y28416D1*
X25511Y28497D1*
X25440Y28581D1*
X25347Y28476D1*
X25240Y28401D1*
X25119Y28350D1*
X24990Y28325D1*
X24860Y28328D1*
X24732Y28359D1*
X24614Y28416D1*
X24511Y28497D1*
X24440Y28581D1*
X24347Y28476D1*
X24240Y28401D1*
X24119Y28350D1*
X23990Y28325D1*
X23860Y28328D1*
X23732Y28359D1*
X23614Y28416D1*
X23511Y28497D1*
X23440Y28581D1*
X23347Y28476D1*
X23240Y28401D1*
X23119Y28350D1*
X22990Y28325D1*
X22860Y28328D1*
X22732Y28359D1*
X22614Y28416D1*
X22559Y28459D1*
X22557Y28323D1*
X21323D1*
Y29557D1*
X22557D1*
Y29422D1*
X22667Y29493D1*
X22790Y29538D1*
X22920Y29557D1*
X23050Y29547D1*
X23176Y29510D1*
X23291Y29447D1*
X23390Y29362D1*
X23437Y29300D1*
X23556Y29423D1*
X23667Y29493D1*
X23790Y29538D1*
X23920Y29557D1*
X24050Y29547D1*
X24176Y29510D1*
X24291Y29447D1*
X24390Y29362D1*
X24437Y29300D1*
X24556Y29423D1*
X24667Y29493D1*
X24790Y29538D1*
X24920Y29557D1*
X25050Y29547D1*
X25176Y29510D1*
X25291Y29447D1*
X25390Y29362D1*
X25437Y29300D1*
X25556Y29423D1*
X25667Y29493D1*
X25790Y29538D1*
X25920Y29557D1*
X26050Y29547D1*
X26176Y29510D1*
X26291Y29447D1*
X26390Y29362D1*
X26437Y29300D1*
X26556Y29423D1*
X26667Y29493D1*
X26790Y29538D1*
X26920Y29557D1*
X27050Y29547D1*
X27176Y29510D1*
X27291Y29447D1*
X27390Y29362D1*
X27437Y29300D1*
X27556Y29423D1*
X27667Y29493D1*
X27790Y29538D1*
X27920Y29557D1*
X28050Y29547D1*
X28176Y29510D1*
X28291Y29447D1*
X28390Y29362D1*
X28437Y29300D1*
X28556Y29423D1*
X28667Y29493D1*
X28790Y29538D1*
X28920Y29557D1*
X29050Y29547D1*
X29176Y29510D1*
X29291Y29447D1*
X29390Y29362D1*
X29469Y29257D1*
X29524Y29139D1*
X29553Y29011D1*
X29557Y28940D1*
X29543Y28810D1*
X29502Y28685D1*
X29436Y28572D1*
X29347Y28476D1*
X29240Y28401D1*
X29119Y28350D1*
X28990Y28325D1*
X28860Y28328D1*
X28808Y28341D1*
X27774Y27305D1*
X27874Y27208D1*
X27936Y27093D1*
X27962Y26943D1*
X27958Y26883D1*
X28252Y26589D1*
X28326Y26482D1*
X28356Y26337D1*
Y14817D1*
X28668D1*
Y14681D1*
X28778Y14753D1*
X28901Y14798D1*
X29031Y14816D1*
X29162Y14807D1*
X29287Y14770D1*
X29402Y14707D1*
X29502Y14622D1*
X29548Y14560D1*
X29648Y14666D1*
X29755Y14741D1*
X29876Y14791D1*
X30005Y14815D1*
X30136Y14811D1*
X30263Y14779D1*
X30381Y14722D1*
X30483Y14640D1*
X30530Y14589D1*
Y18615D1*
X30491Y18553D1*
X30402Y18456D1*
X30295Y18381D1*
X30174Y18330D1*
X30046Y18305D1*
X29915Y18309D1*
X29787Y18339D1*
X29669Y18396D1*
X29566Y18477D1*
X29495Y18562D1*
X29402Y18456D1*
X29295Y18381D1*
X29174Y18330D1*
X29046Y18305D1*
X28915Y18309D1*
X28787Y18339D1*
X28669Y18396D1*
X28566Y18477D1*
X28482Y18577D1*
X28421Y18693D1*
X28386Y18820D1*
X28379Y18950D1*
X28399Y19080D1*
X28446Y19202D1*
X28518Y19312D1*
X28636Y19419D1*
X28566Y19477D1*
X28482Y19577D1*
X28421Y19693D1*
X28386Y19820D1*
X28379Y19950D1*
X28399Y20080D1*
X28446Y20202D1*
X28511Y20301D1*
X28378Y20303D1*
Y21537D1*
X29612D1*
Y21402D1*
X29722Y21474D1*
X29845Y21519D1*
X29975Y21537D1*
X30105Y21527D1*
X30231Y21490D1*
X30346Y21428D1*
X30445Y21342D1*
X30529Y21227D1*
X30530Y21953D1*
X30421Y21894D1*
X30299Y21846D1*
X30172Y21812D1*
X30042Y21793D1*
X29911Y21789D1*
X29780Y21800D1*
X29652Y21825D1*
X29527Y21865D1*
X29407Y21919D1*
X29295Y21987D1*
X29190Y22066D1*
X29096Y22157D1*
X29012Y22258D1*
X28941Y22368D1*
X28882Y22485D1*
X28837Y22609D1*
X28807Y22736D1*
X28791Y22866D1*
X28790Y22998D1*
X28804Y23128D1*
X28833Y23256D1*
X28876Y23380D1*
X28933Y23498D1*
X29003Y23609D1*
X29085Y23711D1*
X29178Y23803D1*
X29281Y23884D1*
X29393Y23953D1*
X29512Y24009D1*
X29636Y24051D1*
X29765Y24078D1*
X29895Y24090D1*
X30026Y24088D1*
X30156Y24071D1*
X30284Y24039D1*
X30406Y23993D1*
X30533Y23926D1*
X30530Y25066D1*
Y25300D1*
X30479Y25245D1*
X30376Y25165D1*
X30257Y25111D1*
X30096Y25087D1*
X29291D1*
X29112Y25117D1*
X29000Y25132D1*
X28573D1*
Y26346D1*
X28717D1*
X28637Y26469D1*
X28591Y26592D1*
X28574Y26722D1*
X28584Y26853D1*
X28622Y26978D1*
X28686Y27092D1*
X28774Y27190D1*
X28880Y27267D1*
X29000Y27319D1*
X29129Y27344D1*
X29259Y27341D1*
X29387Y27310D1*
X29504Y27252D1*
X29607Y27171D1*
X29690Y27069D1*
X29749Y26952D1*
X29781Y26825D1*
X29785Y26687D1*
X29760Y26558D1*
X29707Y26438D1*
X29643Y26346D1*
X29787D1*
Y26170D1*
X29804Y26273D1*
Y29361D1*
X28986Y30178D1*
X28905Y30281D1*
X28851Y30401D1*
X28827Y30565D1*
X28522Y30259D1*
X28419Y30178D1*
X28299Y30125D1*
X28138Y30100D1*
X24829D1*
X28628Y16579D2*
X28640D1*
X28560Y16702D1*
X28515Y16825D1*
X28497Y16955D1*
X28507Y17086D1*
X28546Y17211D1*
X28610Y17325D1*
X28697Y17423D1*
X28803Y17499D1*
X28923Y17552D1*
X29052Y17577D1*
X29183Y17574D1*
X29310Y17543D1*
X29428Y17485D1*
X29530Y17404D1*
X29613Y17302D1*
X29672Y17185D1*
X29704Y17058D1*
X29708Y16920D1*
X29683Y16791D1*
X29631Y16671D1*
X29566Y16579D1*
X29711D1*
Y15365D1*
X28497D1*
Y16579D1*
X28628D1*
X26046Y16568D2*
X26058D1*
X25978Y16691D1*
X25933Y16814D1*
X25915Y16944D1*
X25925Y17074D1*
X25964Y17200D1*
X26028Y17314D1*
X26115Y17411D1*
X26221Y17488D1*
X26341Y17540D1*
X26470Y17565D1*
X26601Y17562D1*
X26728Y17531D1*
X26846Y17474D1*
X26948Y17392D1*
X27031Y17291D1*
X27090Y17174D1*
X27122Y17047D1*
X27126Y16908D1*
X27101Y16780D1*
X27049Y16660D1*
X26984Y16568D1*
X27129D1*
Y15354D1*
X25915D1*
Y16568D1*
X26046D1*
X16821Y34288D2*
X18274D1*
Y31704D1*
X16690D1*
Y34288D1*
X16821D1*
X13903Y33538D2*
X16461D1*
Y31954D1*
X13877D1*
Y33538D1*
X13903D1*
X30064Y7036D2*
X30043Y6880D1*
X29992Y6731D1*
X29912Y6596D1*
X29807Y6478D1*
X29682Y6384D1*
X29540Y6317D1*
X29387Y6278D1*
X29230Y6271D1*
X29075Y6295D1*
X28927Y6349D1*
X28793Y6431D1*
X28678Y6538D1*
X28586Y6666D1*
X28521Y6809D1*
X28486Y6963D1*
X28482Y7120D1*
X28509Y7275D1*
X28566Y7421D1*
X28651Y7554D1*
X28760Y7666D1*
X28890Y7756D1*
X29034Y7818D1*
X29188Y7850D1*
X29345Y7851D1*
X29500Y7821D1*
X29645Y7761D1*
X29776Y7673D1*
X29887Y7562D1*
X29973Y7430D1*
X30032Y7285D1*
X30061Y7130D1*
X30064Y7036D1*
X28772Y33235D2*
X28751Y33080D1*
X28700Y32931D1*
X28620Y32795D1*
X28516Y32678D1*
X28390Y32584D1*
X28248Y32516D1*
X28095Y32478D1*
X27938Y32471D1*
X27783Y32495D1*
X27635Y32549D1*
X27501Y32631D1*
X27386Y32738D1*
X27294Y32866D1*
X27230Y33009D1*
X27195Y33162D1*
X27190Y33319D1*
X27217Y33474D1*
X27274Y33621D1*
X27359Y33753D1*
X27469Y33866D1*
X27598Y33955D1*
X27743Y34017D1*
X27897Y34049D1*
X28054Y34050D1*
X28208Y34020D1*
X28353Y33960D1*
X28484Y33873D1*
X28595Y33761D1*
X28681Y33630D1*
X28740Y33484D1*
X28769Y33330D1*
X28772Y33235D1*
X7716Y5599D2*
X7695Y5443D1*
X7644Y5294D1*
X7564Y5159D1*
X7459Y5041D1*
X7334Y4947D1*
X7192Y4880D1*
X7039Y4841D1*
X6882Y4834D1*
X6727Y4858D1*
X6579Y4912D1*
X6445Y4994D1*
X6330Y5101D1*
X6238Y5229D1*
X6173Y5372D1*
X6138Y5526D1*
X6134Y5683D1*
X6161Y5838D1*
X6218Y5984D1*
X6303Y6117D1*
X6412Y6230D1*
X6542Y6319D1*
X6686Y6381D1*
X6840Y6413D1*
X6997Y6414D1*
X7152Y6384D1*
X7297Y6324D1*
X7428Y6236D1*
X7539Y6125D1*
X7625Y5993D1*
X7684Y5848D1*
X7713Y5693D1*
X7716Y5599D1*
X6448Y31802D2*
X6428Y31646D1*
X6376Y31498D1*
X6297Y31362D1*
X6192Y31245D1*
X6066Y31150D1*
X5924Y31083D1*
X5772Y31045D1*
X5615Y31037D1*
X5459Y31061D1*
X5312Y31115D1*
X5178Y31198D1*
X5063Y31305D1*
X4971Y31432D1*
X4906Y31576D1*
X4871Y31729D1*
X4867Y31886D1*
X4894Y32041D1*
X4951Y32187D1*
X5036Y32320D1*
X5145Y32433D1*
X5275Y32522D1*
X5419Y32584D1*
X5573Y32616D1*
X5730Y32617D1*
X5885Y32587D1*
X6030Y32527D1*
X6161Y32439D1*
X6271Y32328D1*
X6358Y32197D1*
X6417Y32051D1*
X6446Y31896D1*
X6448Y31802D1*
X21419Y8251D2*
D14*
Y7077D1*
X23922Y8272D2*
Y7686D1*
X22881Y5840D2*
X23738Y4982D1*
Y5840D2*
X22881Y4982D1*
X7898Y8861D2*
Y8274D1*
X7834Y10923D2*
Y10336D1*
X12009Y9181D2*
X12438Y8752D1*
D2*
X12009Y8324D1*
X23537Y31229D2*
Y30055D1*
X23532Y34176D2*
Y33003D1*
X28751Y27168D2*
X29609Y26310D1*
Y27168D2*
X28751Y26310D1*
X11002Y31434D2*
Y30260D1*
X13492Y31069D2*
Y29896D1*
X11831Y33496D2*
X12688Y32638D1*
Y33496D2*
X12260Y33067D1*
X28675Y17401D2*
X29532Y16543D1*
Y17401D2*
X28675Y16543D1*
X26093Y17390D2*
X26950Y16532D1*
Y17390D2*
X26093Y16532D1*
X27105Y20166D2*
Y19579D1*
X13878Y33538D2*
X16461Y31954D1*
Y33538D2*
X13878Y31954D1*
X14792Y31445D2*
Y30956D1*
X29616Y14636D2*
X30487Y13764D1*
Y14636D2*
X29616Y13764D1*
X22256Y34479D2*
X22692Y34043D1*
X23128Y34479D2*
X22256Y33608D1*
X11504Y5376D2*
X12376Y4504D1*
Y5376D2*
X11504Y4504D1*
X4688Y28723D2*
X5124Y28287D1*
X5560Y28723D2*
X4688Y27851D1*
X28712Y7622D2*
X29832Y6502D1*
Y7622D2*
X28712Y6502D1*
X27421Y33821D2*
X28540Y32702D1*
Y33821D2*
X27421Y32702D1*
X6364Y6185D2*
X7484Y5065D1*
Y6185D2*
X6364Y5065D1*
X5097Y32388D2*
X6217Y31269D1*
Y32388D2*
X5097Y31269D1*
D22*
X19420Y15400D3*
X20089D3*
X22936Y21025D3*
X22267D3*
D23*
X9722Y18019D3*
Y17350D3*
D24*
X22167Y7664D3*
X21419D3*
X23174Y7686D3*
X23922D3*
D25*
X22309Y5411D3*
D26*
X23309D3*
D24*
X7150Y8861D3*
X7898D3*
X7086Y10336D3*
X7834D3*
D25*
X11438Y8752D3*
D26*
X12438D3*
D24*
X24285Y30642D3*
X23537D3*
X24280Y33589D3*
X23532D3*
D25*
X29180Y25739D3*
D26*
Y26739D3*
D24*
X11750Y30847D3*
X11002D3*
X12744Y30482D3*
X13492D3*
D25*
X11260Y33067D3*
D26*
X12260D3*
D23*
X19746Y18379D3*
Y17710D3*
D22*
X17406Y17382D3*
X18075D3*
D23*
X15190Y18715D3*
Y18045D3*
X21342Y19843D3*
Y19173D3*
D27*
X7541Y12578D3*
Y11830D3*
X8351Y12582D3*
Y11834D3*
D25*
X4932Y11890D3*
D26*
X5932D3*
D24*
X26784Y23373D3*
X27532D3*
X26304Y21752D3*
X27052D3*
D25*
X29104Y15972D3*
D26*
Y16972D3*
D25*
X26510Y25748D3*
D26*
Y26748D3*
D25*
X26522Y15961D3*
D26*
Y16961D3*
D24*
X26357Y20166D3*
X27105D3*
D22*
X18167Y11679D3*
X18836D3*
X20636Y11681D3*
X19967D3*
D24*
X16725Y11688D3*
X15977D3*
D23*
X4720Y16868D3*
Y17537D3*
D28*
X11340Y28940D3*
D29*
X12340D3*
X13340D3*
X14340D3*
X15340D3*
X16340D3*
X17340D3*
X18340D3*
X19340D3*
X20340D3*
D31*
X4794Y14351D3*
X6368D3*
X7942D3*
X9516D3*
X11090D3*
X11877Y15611D3*
X10303D3*
X8729D3*
X7155D3*
X5581D3*
X4751Y23006D3*
X6325D3*
X7899D3*
X9473D3*
X11047D3*
X11834Y24266D3*
X10260D3*
X8686D3*
X7112D3*
X5538D3*
D28*
X14940Y9940D3*
D29*
X15940D3*
X16940D3*
X17940D3*
X18940D3*
X19940D3*
X20940D3*
X21940D3*
D28*
Y28940D3*
D29*
X22940D3*
X23940D3*
X24940D3*
X25940D3*
X26940D3*
X27940D3*
X28940D3*
D28*
X23940Y9940D3*
D29*
X24940D3*
X25940D3*
X26940D3*
X27940D3*
X28940D3*
D28*
X28995Y20920D3*
D29*
Y19920D3*
Y18920D3*
X29995D3*
Y19920D3*
Y20920D3*
D28*
X22531Y24776D3*
D29*
X23531D3*
X24531D3*
Y25776D3*
X23531D3*
X22531D3*
D32*
X17482Y32996D3*
D34*
X15169Y32746D3*
D36*
X20466Y32535D3*
D37*
Y33535D3*
D36*
X20321Y6732D3*
D37*
Y5732D3*
D38*
X14792Y30169D3*
Y30956D3*
D28*
X28051Y14200D3*
D29*
X29051D3*
X30051D3*
D28*
X22692Y32043D3*
D29*
Y33043D3*
Y34043D3*
D28*
X11940Y6940D3*
D29*
Y5940D3*
Y4940D3*
D28*
X7124Y28287D3*
D29*
X6124D3*
X5124D3*
G36*
X28590Y5673D2*
X27883Y4966D1*
X27176Y5673D1*
X27883Y6380D1*
X28590Y5673D1*
G37*
D20*
X29272Y7062D3*
G36*
X29369Y32580D2*
X30076Y31873D1*
X29369Y31166D1*
X28662Y31873D1*
X29369Y32580D1*
G37*
D20*
X27980Y33262D3*
G36*
X5535Y7721D2*
X6242Y7014D1*
X5535Y6307D1*
X4828Y7014D1*
X5535Y7721D1*
G37*
D20*
X6924Y5625D3*
G36*
X6338Y33217D2*
X7046Y33924D1*
X7753Y33217D1*
X7046Y32510D1*
X6338Y33217D1*
G37*
D20*
X5657Y31828D3*
D40*
X22811Y12771D3*
X23716D3*
X24622D3*
D41*
X23716Y15054D3*
D23*
X22371Y17695D3*
Y17026D3*
X22870Y17695D3*
Y17025D3*
D22*
X22654Y11284D3*
X21985D3*
X23972Y11302D3*
X23303D3*
D23*
X20513Y30628D3*
Y31298D3*
X19385Y8241D3*
Y7571D3*
D22*
X16814Y13025D3*
X17483D3*
X6405Y27200D3*
X5735D3*
X6415Y25670D3*
X5745D3*
X16721Y15336D3*
X17390D3*
X8342Y21380D3*
X9011D3*
X7678Y21359D3*
X7009D3*
X19413Y21079D3*
X18744D3*
D23*
X15795Y18027D3*
Y18696D3*
X24900Y11146D3*
Y11815D3*
D22*
X26080Y23960D3*
X25411D3*
D23*
X22533Y22739D3*
Y23408D3*
X24999Y22748D3*
Y23417D3*
X23089Y23383D3*
Y22714D3*
X20764Y19854D3*
Y19185D3*
X20775Y20710D3*
Y21380D3*
D22*
X18763Y22346D3*
X19433D3*
X17505Y22210D3*
X16835D3*
D23*
X14997Y20517D3*
Y19848D3*
X13777Y19804D3*
Y19134D3*
X13819Y20674D3*
Y21343D3*
X13777Y22260D3*
Y22929D3*
X21388Y13751D3*
Y13082D3*
D22*
X21292Y15435D3*
X21961D3*
X19434Y13070D3*
X20103D3*
D23*
X4510Y27225D3*
Y26555D3*
D28*
X15165Y6149D3*
D29*
X16165D3*
X17165D3*
D42*
X6634Y19163D3*
X9799Y20756D3*
D18*
X21965Y20117D3*
X23888Y22200D3*
X25495Y18938D3*
X24028Y17752D3*
X25471Y19950D3*
X19571Y19160D3*
X19198Y18336D3*
X20278Y18302D3*
X21888Y19164D3*
X23320Y16454D3*
X16451Y17891D3*
D23*
X4470Y25675D3*
Y25005D3*
D44*
X17940Y20128D3*
X17743D3*
X17546D3*
X17349D3*
X17153D3*
X16956D3*
D45*
X16700Y19872D3*
Y19675D3*
Y19478D3*
Y19281D3*
Y19084D3*
Y18887D3*
D44*
X16956Y18631D3*
X17152D3*
X17349D3*
X17546D3*
X17743D3*
X17940D3*
D45*
X18196Y18887D3*
Y19084D3*
Y19281D3*
Y19478D3*
Y19675D3*
Y19872D3*
D47*
X22692Y19824D3*
Y19568D3*
Y19312D3*
Y19056D3*
D48*
X23056Y18692D3*
X23312D3*
X23568D3*
X23824D3*
D47*
X24188Y19056D3*
Y19312D3*
Y19568D3*
Y19824D3*
D48*
X23824Y20188D3*
X23568D3*
X23312D3*
X23056D3*
D50*
X7796Y18449D3*
X8296D3*
X8796D3*
D51*
X9031Y19184D3*
D50*
X8796Y19919D3*
X8296D3*
X7796D3*
D52*
X7687Y19184D3*
M02*
