G04 DipTrace 2.2.0.9*
%INTopMaskAF.gbr*%
%MOIN*%
%ADD57C,0.125*%
%ADD60C,0.038*%
%ADD66R,0.1064X0.0395*%
%ADD68R,0.0737X0.0395*%
%ADD70R,0.0395X0.0737*%
%ADD72R,0.0198X0.0395*%
%ADD74R,0.0395X0.0198*%
%ADD76O,0.0415X0.0198*%
%ADD78O,0.0198X0.0415*%
%ADD80C,0.0671*%
%ADD81C,0.048*%
%ADD83R,0.136X0.0926*%
%ADD85R,0.0454X0.0926*%
%ADD87C,0.108*%
%ADD89R,0.0552X0.0474*%
%ADD91C,0.083*%
%ADD92R,0.083X0.083*%
%ADD94R,0.208X0.108*%
%ADD98R,0.108X0.208*%
%ADD100R,0.043X0.087*%
%ADD102C,0.073*%
%ADD104R,0.073X0.073*%
%ADD106R,0.0671X0.0592*%
%ADD108C,0.071*%
%ADD110R,0.071X0.071*%
%ADD112R,0.0592X0.0671*%
%ADD114R,0.0474X0.0513*%
%ADD116R,0.0513X0.0474*%
%FSLAX44Y44*%
%SFA1B1*%
%OFA0B0*%
G04*
G70*
G90*
G75*
G01*
%LNTopMask*%
%LPD*%
D60*
X17460Y11652D3*
X15383Y11680D3*
X16973Y17092D3*
X21999Y19578D3*
X19408Y11682D3*
X21387Y11696D3*
X9813Y11951D3*
X22447Y18163D3*
X22860Y18159D3*
X9841Y11498D3*
X22937Y21454D3*
X24938Y23893D3*
X20578Y13122D3*
Y15435D3*
X22581Y16591D3*
X15483Y17445D3*
X18540Y17390D3*
X18403Y23418D3*
X17328Y19208D3*
X18468Y18474D3*
X18775Y21540D3*
X18010Y22244D3*
X19199Y20565D3*
X19219Y20141D3*
X21193Y20704D3*
X7683Y21920D3*
X10129Y18024D3*
X14795Y19290D3*
X8288Y17708D3*
X11903Y16344D3*
X14740Y21163D3*
X21377Y18685D3*
X13793Y23408D3*
X13755Y18649D3*
X11555Y19966D3*
X18008Y24592D3*
X9784Y12574D3*
Y13029D3*
X13094Y22845D3*
Y17838D3*
X18940Y8302D3*
X19752Y17170D3*
X23442Y21411D3*
X22258Y21494D3*
X24323Y23284D3*
X4771Y18024D3*
X19880Y21087D3*
X9728Y16867D3*
X24472Y11305D3*
X7925Y9683D3*
X9501Y27357D3*
X10257Y26585D3*
X10300Y27263D3*
X21385Y12645D3*
X10296Y22748D3*
X20754Y7631D3*
X24456Y7704D3*
X27059Y20936D3*
X9492Y21398D3*
X6549Y21340D3*
X24925Y19311D3*
X20892Y26033D3*
X26084Y13038D3*
X24915Y19676D3*
X24992Y22118D3*
X23591Y17990D3*
X27520Y26943D3*
X13109Y11904D3*
X20871Y24653D3*
X26187Y22557D3*
X26234Y20945D3*
X27022Y22622D3*
X23504Y32823D3*
X23496Y31260D3*
X10364Y30850D3*
X13262Y29937D3*
D116*
X19420Y15400D3*
X20089D3*
X22936Y21025D3*
X22267D3*
D114*
X9722Y18019D3*
Y17350D3*
D112*
X22167Y7664D3*
X21419D3*
X23174Y7686D3*
X23922D3*
D110*
X22309Y5411D3*
D108*
X23309D3*
D112*
X7150Y8861D3*
X7898D3*
X7086Y10336D3*
X7834D3*
D110*
X11438Y8752D3*
D108*
X12438D3*
D112*
X24285Y30642D3*
X23537D3*
X24280Y33589D3*
X23532D3*
D110*
X29180Y25739D3*
D108*
Y26739D3*
D112*
X11750Y30847D3*
X11002D3*
X12744Y30482D3*
X13492D3*
D110*
X11260Y33067D3*
D108*
X12260D3*
D114*
X19746Y18379D3*
Y17710D3*
D116*
X17406Y17382D3*
X18075D3*
D114*
X15190Y18715D3*
Y18045D3*
X21342Y19843D3*
Y19173D3*
D106*
X7541Y12578D3*
Y11830D3*
X8351Y12582D3*
Y11834D3*
D110*
X4932Y11890D3*
D108*
X5932D3*
D112*
X26784Y23373D3*
X27532D3*
X26304Y21752D3*
X27052D3*
D110*
X29104Y15972D3*
D108*
Y16972D3*
D110*
X26510Y25748D3*
D108*
Y26748D3*
D110*
X26522Y15961D3*
D108*
Y16961D3*
D112*
X26357Y20166D3*
X27105D3*
D116*
X18167Y11679D3*
X18836D3*
X20636Y11681D3*
X19967D3*
D112*
X16725Y11688D3*
X15977D3*
D114*
X4720Y16868D3*
Y17537D3*
D104*
X11340Y28940D3*
D102*
X12340D3*
X13340D3*
X14340D3*
X15340D3*
X16340D3*
X17340D3*
X18340D3*
X19340D3*
X20340D3*
D100*
X4794Y14351D3*
X6368D3*
X7942D3*
X9516D3*
X11090D3*
X11877Y15611D3*
X10303D3*
X8729D3*
X7155D3*
X5581D3*
X4751Y23006D3*
X6325D3*
X7899D3*
X9473D3*
X11047D3*
X11834Y24266D3*
X10260D3*
X8686D3*
X7112D3*
X5538D3*
D104*
X14940Y9940D3*
D102*
X15940D3*
X16940D3*
X17940D3*
X18940D3*
X19940D3*
X20940D3*
X21940D3*
D104*
Y28940D3*
D102*
X22940D3*
X23940D3*
X24940D3*
X25940D3*
X26940D3*
X27940D3*
X28940D3*
D104*
X23940Y9940D3*
D102*
X24940D3*
X25940D3*
X26940D3*
X27940D3*
X28940D3*
D104*
X28995Y20920D3*
D102*
Y19920D3*
Y18920D3*
X29995D3*
Y19920D3*
Y20920D3*
D104*
X22531Y24776D3*
D102*
X23531D3*
X24531D3*
Y25776D3*
X23531D3*
X22531D3*
D98*
X17482Y32996D3*
D94*
X15169Y32746D3*
D92*
X20466Y32535D3*
D91*
Y33535D3*
D92*
X20321Y6732D3*
D91*
Y5732D3*
D57*
X29940Y22940D3*
X9440Y9940D3*
X9940Y28940D3*
X29940Y11940D3*
D89*
X14792Y30169D3*
Y30956D3*
D104*
X28051Y14200D3*
D102*
X29051D3*
X30051D3*
D104*
X22692Y32043D3*
D102*
Y33043D3*
Y34043D3*
D104*
X11940Y6940D3*
D102*
Y5940D3*
Y4940D3*
D104*
X7124Y28287D3*
D102*
X6124D3*
X5124D3*
G36*
X28647Y5673D2*
X27883Y4910D1*
X27120Y5673D1*
X27883Y6437D1*
X28647Y5673D1*
G37*
D87*
X29272Y7062D3*
G36*
X29369Y32637D2*
X30133Y31873D1*
X29369Y31109D1*
X28605Y31873D1*
X29369Y32637D1*
G37*
D87*
X27980Y33262D3*
G36*
X5535Y7777D2*
X6299Y7014D1*
X5535Y6250D1*
X4772Y7014D1*
X5535Y7777D1*
G37*
D87*
X6924Y5625D3*
G36*
X6282Y33217D2*
X7046Y33981D1*
X7809Y33217D1*
X7046Y32453D1*
X6282Y33217D1*
G37*
D87*
X5657Y31828D3*
D85*
X22811Y12771D3*
X23716D3*
X24622D3*
D83*
X23716Y15054D3*
D114*
X22371Y17695D3*
Y17026D3*
X22870Y17695D3*
Y17025D3*
D116*
X22654Y11284D3*
X21985D3*
X23972Y11302D3*
X23303D3*
D114*
X20513Y30628D3*
Y31298D3*
X19385Y8241D3*
Y7571D3*
D116*
X16814Y13025D3*
X17483D3*
X6405Y27200D3*
X5735D3*
X6415Y25670D3*
X5745D3*
X16721Y15336D3*
X17390D3*
X8342Y21380D3*
X9011D3*
X7678Y21359D3*
X7009D3*
X19413Y21079D3*
X18744D3*
D114*
X15795Y18027D3*
Y18696D3*
X24900Y11146D3*
Y11815D3*
D116*
X26080Y23960D3*
X25411D3*
D114*
X22533Y22739D3*
Y23408D3*
X24999Y22748D3*
Y23417D3*
X23089Y23383D3*
Y22714D3*
X20764Y19854D3*
Y19185D3*
X20775Y20710D3*
Y21380D3*
D116*
X18763Y22346D3*
X19433D3*
X17505Y22210D3*
X16835D3*
D114*
X14997Y20517D3*
Y19848D3*
X13777Y19804D3*
Y19134D3*
X13819Y20674D3*
Y21343D3*
X13777Y22260D3*
Y22929D3*
X21388Y13751D3*
Y13082D3*
D116*
X21292Y15435D3*
X21961D3*
X19434Y13070D3*
X20103D3*
D114*
X4510Y27225D3*
Y26555D3*
D104*
X15165Y6149D3*
D102*
X16165D3*
X17165D3*
D80*
X6634Y19163D3*
X9799Y20756D3*
D81*
X21965Y20117D3*
X23888Y22200D3*
X25495Y18938D3*
X24028Y17752D3*
X25471Y19950D3*
X19571Y19160D3*
X19198Y18336D3*
X20278Y18302D3*
X21888Y19164D3*
X23320Y16454D3*
X16451Y17891D3*
D114*
X4470Y25675D3*
Y25005D3*
D78*
X17940Y20128D3*
X17743D3*
X17546D3*
X17349D3*
X17153D3*
X16956D3*
D76*
X16700Y19872D3*
Y19675D3*
Y19478D3*
Y19281D3*
Y19084D3*
Y18887D3*
D78*
X16956Y18631D3*
X17152D3*
X17349D3*
X17546D3*
X17743D3*
X17940D3*
D76*
X18196Y18887D3*
Y19084D3*
Y19281D3*
Y19478D3*
Y19675D3*
Y19872D3*
D74*
X22692Y19824D3*
Y19568D3*
Y19312D3*
Y19056D3*
D72*
X23056Y18692D3*
X23312D3*
X23568D3*
X23824D3*
D74*
X24188Y19056D3*
Y19312D3*
Y19568D3*
Y19824D3*
D72*
X23824Y20188D3*
X23568D3*
X23312D3*
X23056D3*
D70*
X7796Y18449D3*
X8296D3*
X8796D3*
D68*
X9031Y19184D3*
D70*
X8796Y19919D3*
X8296D3*
X7796D3*
D66*
X7687Y19184D3*
M02*
