G04 DipTrace 2.2.0.9*
%INTopPasteAF.gbr*%
%MOIN*%
%ADD59C,0.0511*%
%ADD61C,0.022*%
%ADD67R,0.0904X0.0235*%
%ADD69R,0.0577X0.0235*%
%ADD71R,0.0235X0.0577*%
%ADD73R,0.0038X0.0235*%
%ADD75R,0.0235X0.0038*%
%ADD77O,0.0255X0.0038*%
%ADD79O,0.0038X0.0255*%
%ADD82C,0.032*%
%ADD84R,0.12X0.0766*%
%ADD86R,0.0294X0.0766*%
%ADD90R,0.0392X0.0314*%
%ADD101R,0.027X0.071*%
%ADD107R,0.0511X0.0432*%
%ADD113R,0.0432X0.0511*%
%ADD115R,0.0314X0.0353*%
%ADD117R,0.0353X0.0314*%
%FSLAX44Y44*%
%SFA1B1*%
%OFA0B0*%
G04*
G70*
G90*
G75*
G01*
%LNTopPaste*%
%LPD*%
D61*
X17460Y11652D3*
X15383Y11680D3*
X16973Y17092D3*
X21999Y19578D3*
X19408Y11682D3*
X21387Y11696D3*
X9813Y11951D3*
X22447Y18163D3*
X22860Y18159D3*
X9841Y11498D3*
X22937Y21454D3*
X24938Y23893D3*
X20578Y13122D3*
Y15435D3*
X22581Y16591D3*
X15483Y17445D3*
X18540Y17390D3*
X18403Y23418D3*
X17328Y19208D3*
X18468Y18474D3*
X18775Y21540D3*
X18010Y22244D3*
X19199Y20565D3*
X19219Y20141D3*
X21193Y20704D3*
X7683Y21920D3*
X10129Y18024D3*
X14795Y19290D3*
X8288Y17708D3*
X11903Y16344D3*
X14740Y21163D3*
X21377Y18685D3*
X13793Y23408D3*
X13755Y18649D3*
X11555Y19966D3*
X18008Y24592D3*
X9784Y12574D3*
Y13029D3*
X13094Y22845D3*
Y17838D3*
X18940Y8302D3*
X19752Y17170D3*
X23442Y21411D3*
X22258Y21494D3*
X24323Y23284D3*
X4771Y18024D3*
X19880Y21087D3*
X9728Y16867D3*
X24472Y11305D3*
X7925Y9683D3*
X9501Y27357D3*
X10257Y26585D3*
X10300Y27263D3*
X21385Y12645D3*
X10296Y22748D3*
X20754Y7631D3*
X24456Y7704D3*
X27059Y20936D3*
X9492Y21398D3*
X6549Y21340D3*
X24925Y19311D3*
X20892Y26033D3*
X26084Y13038D3*
X24915Y19676D3*
X24992Y22118D3*
X23591Y17990D3*
X27520Y26943D3*
X13109Y11904D3*
X20871Y24653D3*
X26187Y22557D3*
X26234Y20945D3*
X27022Y22622D3*
X23504Y32823D3*
X23496Y31260D3*
X10364Y30850D3*
X13262Y29937D3*
D117*
X19420Y15400D3*
X20089D3*
X22936Y21025D3*
X22267D3*
D115*
X9722Y18019D3*
Y17350D3*
D113*
X22167Y7664D3*
X21419D3*
X23174Y7686D3*
X23922D3*
X7150Y8861D3*
X7898D3*
X7086Y10336D3*
X7834D3*
X24285Y30642D3*
X23537D3*
X24280Y33589D3*
X23532D3*
X11750Y30847D3*
X11002D3*
X12744Y30482D3*
X13492D3*
D115*
X19746Y18379D3*
Y17710D3*
D117*
X17406Y17382D3*
X18075D3*
D115*
X15190Y18715D3*
Y18045D3*
X21342Y19843D3*
Y19173D3*
D107*
X7541Y12578D3*
Y11830D3*
X8351Y12582D3*
Y11834D3*
D113*
X26784Y23373D3*
X27532D3*
X26304Y21752D3*
X27052D3*
X26357Y20166D3*
X27105D3*
D117*
X18167Y11679D3*
X18836D3*
X20636Y11681D3*
X19967D3*
D113*
X16725Y11688D3*
X15977D3*
D115*
X4720Y16868D3*
Y17537D3*
D101*
X4794Y14351D3*
X6368D3*
X7942D3*
X9516D3*
X11090D3*
X11877Y15611D3*
X10303D3*
X8729D3*
X7155D3*
X5581D3*
X4751Y23006D3*
X6325D3*
X7899D3*
X9473D3*
X11047D3*
X11834Y24266D3*
X10260D3*
X8686D3*
X7112D3*
X5538D3*
D90*
X14792Y30169D3*
Y30956D3*
D86*
X22811Y12771D3*
X23716D3*
X24622D3*
D84*
X23716Y15054D3*
D115*
X22371Y17695D3*
Y17026D3*
X22870Y17695D3*
Y17025D3*
D117*
X22654Y11284D3*
X21985D3*
X23972Y11302D3*
X23303D3*
D115*
X20513Y30628D3*
Y31298D3*
X19385Y8241D3*
Y7571D3*
D117*
X16814Y13025D3*
X17483D3*
X6405Y27200D3*
X5735D3*
X6415Y25670D3*
X5745D3*
X16721Y15336D3*
X17390D3*
X8342Y21380D3*
X9011D3*
X7678Y21359D3*
X7009D3*
X19413Y21079D3*
X18744D3*
D115*
X15795Y18027D3*
Y18696D3*
X24900Y11146D3*
Y11815D3*
D117*
X26080Y23960D3*
X25411D3*
D115*
X22533Y22739D3*
Y23408D3*
X24999Y22748D3*
Y23417D3*
X23089Y23383D3*
Y22714D3*
X20764Y19854D3*
Y19185D3*
X20775Y20710D3*
Y21380D3*
D117*
X18763Y22346D3*
X19433D3*
X17505Y22210D3*
X16835D3*
D115*
X14997Y20517D3*
Y19848D3*
X13777Y19804D3*
Y19134D3*
X13819Y20674D3*
Y21343D3*
X13777Y22260D3*
Y22929D3*
X21388Y13751D3*
Y13082D3*
D117*
X21292Y15435D3*
X21961D3*
X19434Y13070D3*
X20103D3*
D115*
X4510Y27225D3*
Y26555D3*
D59*
X6634Y19163D3*
X9799Y20756D3*
D82*
X21965Y20117D3*
X23888Y22200D3*
X25495Y18938D3*
X24028Y17752D3*
X25471Y19950D3*
X19571Y19160D3*
X19198Y18336D3*
X20278Y18302D3*
X21888Y19164D3*
X23320Y16454D3*
X16451Y17891D3*
D115*
X4470Y25675D3*
Y25005D3*
D79*
X17940Y20128D3*
X17743D3*
X17546D3*
X17349D3*
X17153D3*
X16956D3*
D77*
X16700Y19872D3*
Y19675D3*
Y19478D3*
Y19281D3*
Y19084D3*
Y18887D3*
D79*
X16956Y18631D3*
X17152D3*
X17349D3*
X17546D3*
X17743D3*
X17940D3*
D77*
X18196Y18887D3*
Y19084D3*
Y19281D3*
Y19478D3*
Y19675D3*
Y19872D3*
D75*
X22692Y19824D3*
Y19568D3*
Y19312D3*
Y19056D3*
D73*
X23056Y18692D3*
X23312D3*
X23568D3*
X23824D3*
D75*
X24188Y19056D3*
Y19312D3*
Y19568D3*
Y19824D3*
D73*
X23824Y20188D3*
X23568D3*
X23312D3*
X23056D3*
D71*
X7796Y18449D3*
X8296D3*
X8796D3*
D69*
X9031Y19184D3*
D71*
X8796Y19919D3*
X8296D3*
X7796D3*
D67*
X7687Y19184D3*
M02*
